<?xml version="1.0" encoding="UTF-8" standalone="no"?><!DOCTYPE svg PUBLIC "-//W3C//DTD SVG 1.1//EN" "http://www.w3.org/Graphics/SVG/1.1/DTD/svg11.dtd"><!-- Generated by graphviz version 2.40.1 (20161225.0304)
 --><!-- Title: G Pages: 1 --><svg xmlns="http://www.w3.org/2000/svg" xmlns:xlink="http://www.w3.org/1999/xlink" width="300pt" height="690pt" viewBox="0.00 0.00 300.00 690.40">
<g id="graph0" class="graph" transform="scale(1 1) rotate(0) translate(4 686.4)">
<title>G</title>
<polygon fill="#ffffff" stroke="transparent" points="-4,4 -4,-686.4 296,-686.4 296,4 -4,4"/>
<g id="clust1" class="cluster">
<title>cluster_main</title>
<polygon fill="none" stroke="#000000" stroke-dasharray="5,2" points="8,-8 8,-674.4 284,-674.4 284,-8 8,-8"/>
<text text-anchor="middle" x="146" y="-657.8" font-family="Times,serif" font-size="14.00" fill="#000000">main ()</text>
</g>
<g id="clust2" class="cluster">
<title>cluster_0_1</title>
<polygon fill="#e0e0e0" stroke="#006400" stroke-width="2" points="126,-191.4 126,-469.4 276,-469.4 276,-191.4 126,-191.4"/>
<text text-anchor="middle" x="151.6953" y="-452.8" font-family="Times,serif" font-size="14.00" fill="#000000">loop 1</text>
</g>
<!-- fn_0_basic_block_4 -->
<g id="node1" class="node">
<title>fn_0_basic_block_4</title>
<polygon fill="#d3d3d3" stroke="#000000" points="134.3673,-336.1 134.3673,-436.1 267.6327,-436.1 267.6327,-336.1 134.3673,-336.1"/>
<text text-anchor="start" x="142.3673" y="-419.5" font-family="Times,serif" font-size="14.00" fill="#000000">&lt;bb 4&gt;:</text>
<polyline fill="none" stroke="#000000" points="134.3673,-411.3 267.6327,-411.3 "/>
<text text-anchor="start" x="142.3673" y="-394.7" font-family="Times,serif" font-size="14.00" fill="#000000">if (i &lt;= 3)</text>
<text text-anchor="start" x="142.3673" y="-377.9" font-family="Times,serif" font-size="14.00" fill="#000000">  goto &lt;bb 3&gt;; [INV]</text>
<text text-anchor="start" x="142.3673" y="-361.1" font-family="Times,serif" font-size="14.00" fill="#000000">else</text>
<text text-anchor="start" x="142.3673" y="-344.3" font-family="Times,serif" font-size="14.00" fill="#000000">  goto &lt;bb 5&gt;; [INV]</text>
</g>
<!-- fn_0_basic_block_3 -->
<g id="node2" class="node">
<title>fn_0_basic_block_3</title>
<polygon fill="#d3d3d3" stroke="#000000" points="152.6422,-199.9 152.6422,-299.1 249.3578,-299.1 249.3578,-199.9 152.6422,-199.9"/>
<text text-anchor="start" x="160.6422" y="-282.5" font-family="Times,serif" font-size="14.00" fill="#000000">&lt;bb 3&gt;:</text>
<polyline fill="none" stroke="#000000" points="152.6422,-274.3 249.3578,-274.3 "/>
<text text-anchor="start" x="160.6422" y="-257.7" font-family="Times,serif" font-size="14.00" fill="#000000">N.0_1 = N;</text>
<polyline fill="none" stroke="#000000" points="152.6422,-249.5 249.3578,-249.5 "/>
<text text-anchor="start" x="160.6422" y="-232.9" font-family="Times,serif" font-size="14.00" fill="#000000">a = a + N.0_1;</text>
<polyline fill="none" stroke="#000000" points="152.6422,-224.7 249.3578,-224.7 "/>
<text text-anchor="start" x="160.6422" y="-208.1" font-family="Times,serif" font-size="14.00" fill="#000000">i = i + 1;</text>
</g>
<!-- fn_0_basic_block_4&#45;&gt;fn_0_basic_block_3 -->
<g id="edge4" class="edge">
<title>fn_0_basic_block_4:s-&gt;fn_0_basic_block_3:n</title>
<path fill="none" stroke="#000000" stroke-width="2" d="M201,-336.1C201,-323.7729 201,-318.452 201,-309.5186"/>
<polygon fill="#000000" stroke="#000000" stroke-width="2" points="204.5001,-309.5 201,-299.5 197.5001,-309.5 204.5001,-309.5"/>
</g>
<!-- fn_0_basic_block_5 -->
<g id="node6" class="node">
<title>fn_0_basic_block_5</title>
<polygon fill="#d3d3d3" stroke="#000000" points="35.6968,-224.7 35.6968,-274.3 118.3032,-274.3 118.3032,-224.7 35.6968,-224.7"/>
<text text-anchor="start" x="43.6968" y="-257.7" font-family="Times,serif" font-size="14.00" fill="#000000">&lt;bb 5&gt;:</text>
<polyline fill="none" stroke="#000000" points="35.6968,-249.5 118.3032,-249.5 "/>
<text text-anchor="start" x="43.6968" y="-232.9" font-family="Times,serif" font-size="14.00" fill="#000000">D.1508 = a;</text>
</g>
<!-- fn_0_basic_block_4&#45;&gt;fn_0_basic_block_5 -->
<g id="edge5" class="edge">
<title>fn_0_basic_block_4:s-&gt;fn_0_basic_block_5:n</title>
<path fill="none" stroke="#000000" stroke-width="2" d="M201,-336.1C201,-278.4093 92.0156,-328.8331 78.3926,-284.6567"/>
<polygon fill="#000000" stroke="#000000" stroke-width="2" points="81.826,-283.9318 77,-274.5 74.8909,-284.8828 81.826,-283.9318"/>
</g>
<!-- fn_0_basic_block_3&#45;&gt;fn_0_basic_block_4 -->
<g id="edge3" class="edge">
<title>fn_0_basic_block_3:s-&gt;fn_0_basic_block_4:n</title>
<path fill="none" stroke="#0000ff" stroke-width="2" stroke-dasharray="1,5" d="M201,-199.5C201,-178.0076 233.1807,-185.3499 249.3578,-199.5 254.9273,-204.3716 293.8921,-409.8406 267.6327,-436.1 259.5346,-444.1981 224.1032,-448.6273 208.464,-443.3676"/>
<polygon fill="#0000ff" stroke="#0000ff" stroke-width="2" points="210.6064,-440.5685 201,-436.1 205.7231,-445.5838 210.6064,-440.5685"/>
</g>
<!-- fn_0_basic_block_0 -->
<g id="node3" class="node">
<title>fn_0_basic_block_0</title>
<polygon fill="#ffffff" stroke="#000000" points="201,-641.6 139.76,-623.6 201,-605.6 262.24,-623.6 201,-641.6"/>
<polyline fill="none" stroke="#000000" points="151.273,-626.984 151.273,-620.216 "/>
<polyline fill="none" stroke="#000000" points="189.487,-608.984 212.513,-608.984 "/>
<polyline fill="none" stroke="#000000" points="250.727,-620.216 250.727,-626.984 "/>
<polyline fill="none" stroke="#000000" points="212.513,-638.216 189.487,-638.216 "/>
<text text-anchor="middle" x="201" y="-619.4" font-family="Times,serif" font-size="14.00" fill="#000000">ENTRY</text>
</g>
<!-- fn_0_basic_block_1 -->
<g id="node4" class="node">
<title>fn_0_basic_block_1</title>
<polygon fill="#ffffff" stroke="#000000" points="85,-52 38.1002,-34 85,-16 131.8998,-34 85,-52"/>
<polyline fill="none" stroke="#000000" points="49.3034,-38.2998 49.3034,-29.7002 "/>
<polyline fill="none" stroke="#000000" points="73.7968,-20.2998 96.2032,-20.2998 "/>
<polyline fill="none" stroke="#000000" points="120.6966,-29.7002 120.6966,-38.2998 "/>
<polyline fill="none" stroke="#000000" points="96.2032,-47.7002 73.7968,-47.7002 "/>
<text text-anchor="middle" x="85" y="-29.8" font-family="Times,serif" font-size="14.00" fill="#000000">EXIT</text>
</g>
<!-- fn_0_basic_block_0&#45;&gt;fn_0_basic_block_1 -->
<!-- fn_0_basic_block_2 -->
<g id="node5" class="node">
<title>fn_0_basic_block_2</title>
<polygon fill="#d3d3d3" stroke="#000000" points="137.8673,-477.9 137.8673,-569.1 264.1327,-569.1 264.1327,-477.9 137.8673,-477.9"/>
<text text-anchor="start" x="145.8673" y="-552.5" font-family="Times,serif" font-size="14.00" fill="#000000">&lt;bb 2&gt;:</text>
<polyline fill="none" stroke="#000000" points="137.8673,-544.3 264.1327,-544.3 "/>
<text text-anchor="start" x="145.8673" y="-527.7" font-family="Times,serif" font-size="14.00" fill="#000000">a = 10;</text>
<polyline fill="none" stroke="#000000" points="137.8673,-519.5 264.1327,-519.5 "/>
<text text-anchor="start" x="145.8673" y="-502.9" font-family="Times,serif" font-size="14.00" fill="#000000">i = 0;</text>
<text text-anchor="start" x="145.8673" y="-486.1" font-family="Times,serif" font-size="14.00" fill="#000000">goto &lt;bb 4&gt;; [INV]</text>
</g>
<!-- fn_0_basic_block_0&#45;&gt;fn_0_basic_block_2 -->
<g id="edge1" class="edge">
<title>fn_0_basic_block_0:s-&gt;fn_0_basic_block_2:n</title>
<path fill="none" stroke="#0000ff" stroke-width="2" d="M201,-605.6C201,-593.5667 201,-588.3021 201,-579.6531"/>
<polygon fill="#0000ff" stroke="#0000ff" stroke-width="2" points="204.5001,-579.5 201,-569.5 197.5001,-579.5 204.5001,-579.5"/>
</g>
<!-- fn_0_basic_block_2&#45;&gt;fn_0_basic_block_4 -->
<g id="edge2" class="edge">
<title>fn_0_basic_block_2:s-&gt;fn_0_basic_block_4:n</title>
<path fill="none" stroke="#0000ff" stroke-width="2" d="M201,-477.5C201,-462.9813 201,-457.0547 201,-446.1607"/>
<polygon fill="#0000ff" stroke="#0000ff" stroke-width="2" points="204.5001,-446.1 201,-436.1 197.5001,-446.1 204.5001,-446.1"/>
</g>
<!-- fn_0_basic_block_6 -->
<g id="node7" class="node">
<title>fn_0_basic_block_6</title>
<polygon fill="#d3d3d3" stroke="#000000" points="35.7882,-88.5 35.7882,-162.9 134.2118,-162.9 134.2118,-88.5 35.7882,-88.5"/>
<text text-anchor="start" x="43.7882" y="-146.3" font-family="Times,serif" font-size="14.00" fill="#000000">&lt;bb 6&gt;:</text>
<polyline fill="none" stroke="#000000" points="35.7882,-138.1 134.2118,-138.1 "/>
<text text-anchor="start" x="43.7882" y="-121.5" font-family="Times,serif" font-size="14.00" fill="#000000">&lt;L3&gt;:</text>
<polyline fill="none" stroke="#000000" points="35.7882,-113.3 134.2118,-113.3 "/>
<text text-anchor="start" x="43.7882" y="-96.7" font-family="Times,serif" font-size="14.00" fill="#000000">return D.1508;</text>
</g>
<!-- fn_0_basic_block_5&#45;&gt;fn_0_basic_block_6 -->
<g id="edge6" class="edge">
<title>fn_0_basic_block_5:s-&gt;fn_0_basic_block_6:n</title>
<path fill="none" stroke="#0000ff" stroke-width="2" d="M77,-224.5C77,-200.4825 83.0161,-192.4735 84.6141,-172.7083"/>
<polygon fill="#0000ff" stroke="#0000ff" stroke-width="2" points="88.1121,-172.8274 85,-162.7 81.1173,-172.5577 88.1121,-172.8274"/>
</g>
<!-- fn_0_basic_block_6&#45;&gt;fn_0_basic_block_1 -->
<g id="edge7" class="edge">
<title>fn_0_basic_block_6:s-&gt;fn_0_basic_block_1:n</title>
<path fill="none" stroke="#000000" stroke-width="2" d="M85,-88.7C85,-76.3392 85,-71.0038 85,-62.046"/>
<polygon fill="#000000" stroke="#000000" stroke-width="2" points="88.5001,-62 85,-52 81.5001,-62 88.5001,-62"/>
</g>
</g>
</svg>