<?xml version="1.0" encoding="UTF-8" standalone="no"?><!DOCTYPE svg PUBLIC "-//W3C//DTD SVG 1.1//EN" "http://www.w3.org/Graphics/SVG/1.1/DTD/svg11.dtd"><!-- Generated by graphviz version 2.40.1 (20161225.0304)
 --><!-- Title: a&#45;1.c.012t.cfg Pages: 1 --><svg xmlns="http://www.w3.org/2000/svg" xmlns:xlink="http://www.w3.org/1999/xlink" width="286pt" height="810pt" viewBox="0.00 0.00 285.79 810.40">
<g id="graph0" class="graph" transform="scale(1 1) rotate(0) translate(4 806.4)">
<title>a-1.c.012t.cfg</title>
<polygon fill="#ffffff" stroke="transparent" points="-4,4 -4,-806.4 281.7864,-806.4 281.7864,4 -4,4"/>
<g id="clust1" class="cluster">
<title>cluster_f</title>
<polygon fill="none" stroke="#000000" stroke-dasharray="5,2" points="9.7864,-8 9.7864,-794.4 269.7864,-794.4 269.7864,-8 9.7864,-8"/>
<text text-anchor="middle" x="139.7864" y="-777.8" font-family="Times,serif" font-size="14.00" fill="#000000">f ()</text>
</g>
<!-- fn_0_basic_block_0 -->
<g id="node1" class="node">
<title>fn_0_basic_block_0</title>
<polygon fill="#ffffff" stroke="#000000" points="104.7864,-761.6 43.5464,-743.6 104.7864,-725.6 166.0264,-743.6 104.7864,-761.6"/>
<polyline fill="none" stroke="#000000" points="55.0594,-746.984 55.0594,-740.216 "/>
<polyline fill="none" stroke="#000000" points="93.2734,-728.984 116.2994,-728.984 "/>
<polyline fill="none" stroke="#000000" points="154.5134,-740.216 154.5134,-746.984 "/>
<polyline fill="none" stroke="#000000" points="116.2994,-758.216 93.2734,-758.216 "/>
<text text-anchor="middle" x="104.7864" y="-739.4" font-family="Times,serif" font-size="14.00" fill="#000000">ENTRY</text>
</g>
<!-- fn_0_basic_block_1 -->
<g id="node2" class="node">
<title>fn_0_basic_block_1</title>
<polygon fill="#ffffff" stroke="#000000" points="211.7864,-52 164.8866,-34 211.7864,-16 258.6862,-34 211.7864,-52"/>
<polyline fill="none" stroke="#000000" points="176.0898,-38.2998 176.0898,-29.7002 "/>
<polyline fill="none" stroke="#000000" points="200.5832,-20.2998 222.9896,-20.2998 "/>
<polyline fill="none" stroke="#000000" points="247.4829,-29.7002 247.4829,-38.2998 "/>
<polyline fill="none" stroke="#000000" points="222.9896,-47.7002 200.5832,-47.7002 "/>
<text text-anchor="middle" x="211.7864" y="-29.8" font-family="Times,serif" font-size="14.00" fill="#000000">EXIT</text>
</g>
<!-- fn_0_basic_block_0&#45;&gt;fn_0_basic_block_1 -->
<!-- fn_0_basic_block_2 -->
<g id="node3" class="node">
<title>fn_0_basic_block_2</title>
<polygon fill="#d3d3d3" stroke="#000000" points="38.1537,-564.3 38.1537,-689.1 171.4191,-689.1 171.4191,-564.3 38.1537,-564.3"/>
<text text-anchor="start" x="46.1537" y="-672.5" font-family="Times,serif" font-size="14.00" fill="#000000">&lt;bb 2&gt;:</text>
<polyline fill="none" stroke="#000000" points="38.1537,-664.3 171.4191,-664.3 "/>
<text text-anchor="start" x="46.1537" y="-647.7" font-family="Times,serif" font-size="14.00" fill="#000000">a = Z;</text>
<polyline fill="none" stroke="#000000" points="38.1537,-639.5 171.4191,-639.5 "/>
<text text-anchor="start" x="46.1537" y="-622.9" font-family="Times,serif" font-size="14.00" fill="#000000">if (a &lt;= 9)</text>
<text text-anchor="start" x="46.1537" y="-606.1" font-family="Times,serif" font-size="14.00" fill="#000000">  goto &lt;bb 3&gt;; [INV]</text>
<text text-anchor="start" x="46.1537" y="-589.3" font-family="Times,serif" font-size="14.00" fill="#000000">else</text>
<text text-anchor="start" x="46.1537" y="-572.5" font-family="Times,serif" font-size="14.00" fill="#000000">  goto &lt;bb 4&gt;; [INV]</text>
</g>
<!-- fn_0_basic_block_0&#45;&gt;fn_0_basic_block_2 -->
<g id="edge1" class="edge">
<title>fn_0_basic_block_0:s-&gt;fn_0_basic_block_2:n</title>
<path fill="none" stroke="#0000ff" stroke-width="2" d="M104.7864,-725.6C104.7864,-713.1719 104.7864,-707.8074 104.7864,-698.8007"/>
<polygon fill="#0000ff" stroke="#0000ff" stroke-width="2" points="108.2865,-698.7 104.7864,-688.7 101.2865,-698.7 108.2865,-698.7"/>
</g>
<!-- fn_0_basic_block_3 -->
<g id="node4" class="node">
<title>fn_0_basic_block_3</title>
<polygon fill="#d3d3d3" stroke="#000000" points="37.6537,-249.5 37.6537,-340.7 163.9191,-340.7 163.9191,-249.5 37.6537,-249.5"/>
<text text-anchor="start" x="45.6537" y="-324.1" font-family="Times,serif" font-size="14.00" fill="#000000">&lt;bb 3&gt;:</text>
<polyline fill="none" stroke="#000000" points="37.6537,-315.9 163.9191,-315.9 "/>
<text text-anchor="start" x="45.6537" y="-299.3" font-family="Times,serif" font-size="14.00" fill="#000000">b = 5;</text>
<polyline fill="none" stroke="#000000" points="37.6537,-291.1 163.9191,-291.1 "/>
<text text-anchor="start" x="45.6537" y="-274.5" font-family="Times,serif" font-size="14.00" fill="#000000">c = 17;</text>
<text text-anchor="start" x="45.6537" y="-257.7" font-family="Times,serif" font-size="14.00" fill="#000000">goto &lt;bb 6&gt;; [INV]</text>
</g>
<!-- fn_0_basic_block_2&#45;&gt;fn_0_basic_block_3 -->
<g id="edge2" class="edge">
<title>fn_0_basic_block_2:s-&gt;fn_0_basic_block_3:n</title>
<path fill="none" stroke="#000000" stroke-width="2" d="M104.7864,-564.7C104.7864,-468.8006 101.0627,-442.3305 100.8009,-351.3129"/>
<polygon fill="#000000" stroke="#000000" stroke-width="2" points="104.3007,-351.095 100.7864,-341.1 97.3007,-351.105 104.3007,-351.095"/>
</g>
<!-- fn_0_basic_block_4 -->
<g id="node5" class="node">
<title>fn_0_basic_block_4</title>
<polygon fill="#d3d3d3" stroke="#000000" points="128.1537,-377.7 128.1537,-527.3 261.4191,-527.3 261.4191,-377.7 128.1537,-377.7"/>
<text text-anchor="start" x="136.1537" y="-510.7" font-family="Times,serif" font-size="14.00" fill="#000000">&lt;bb 4&gt;:</text>
<polyline fill="none" stroke="#000000" points="128.1537,-502.5 261.4191,-502.5 "/>
<text text-anchor="start" x="136.1537" y="-485.9" font-family="Times,serif" font-size="14.00" fill="#000000">b = 6;</text>
<polyline fill="none" stroke="#000000" points="128.1537,-477.7 261.4191,-477.7 "/>
<text text-anchor="start" x="136.1537" y="-461.1" font-family="Times,serif" font-size="14.00" fill="#000000">c = 20;</text>
<polyline fill="none" stroke="#000000" points="128.1537,-452.9 261.4191,-452.9 "/>
<text text-anchor="start" x="136.1537" y="-436.3" font-family="Times,serif" font-size="14.00" fill="#000000">if (a == 0)</text>
<text text-anchor="start" x="136.1537" y="-419.5" font-family="Times,serif" font-size="14.00" fill="#000000">  goto &lt;bb 5&gt;; [INV]</text>
<text text-anchor="start" x="136.1537" y="-402.7" font-family="Times,serif" font-size="14.00" fill="#000000">else</text>
<text text-anchor="start" x="136.1537" y="-385.9" font-family="Times,serif" font-size="14.00" fill="#000000">  goto &lt;bb 6&gt;; [INV]</text>
</g>
<!-- fn_0_basic_block_2&#45;&gt;fn_0_basic_block_4 -->
<g id="edge3" class="edge">
<title>fn_0_basic_block_2:s-&gt;fn_0_basic_block_4:n</title>
<path fill="none" stroke="#000000" stroke-width="2" d="M104.7864,-564.7C104.7864,-525.4755 178.7024,-562.3407 192.5616,-537.383"/>
<polygon fill="#000000" stroke="#000000" stroke-width="2" points="196.0047,-538.0245 194.7864,-527.5 189.1756,-536.4872 196.0047,-538.0245"/>
</g>
<!-- fn_0_basic_block_6 -->
<g id="node7" class="node">
<title>fn_0_basic_block_6</title>
<polygon fill="#d3d3d3" stroke="#000000" points="169.8392,-88.5 169.8392,-212.5 253.7336,-212.5 253.7336,-88.5 169.8392,-88.5"/>
<text text-anchor="start" x="177.8392" y="-195.9" font-family="Times,serif" font-size="14.00" fill="#000000">&lt;bb 6&gt;:</text>
<polyline fill="none" stroke="#000000" points="169.8392,-187.7 253.7336,-187.7 "/>
<text text-anchor="start" x="177.8392" y="-171.1" font-family="Times,serif" font-size="14.00" fill="#000000">_1 = b * 10;</text>
<polyline fill="none" stroke="#000000" points="169.8392,-162.9 253.7336,-162.9 "/>
<text text-anchor="start" x="177.8392" y="-146.3" font-family="Times,serif" font-size="14.00" fill="#000000">_2 = c + _1;</text>
<polyline fill="none" stroke="#000000" points="169.8392,-138.1 253.7336,-138.1 "/>
<text text-anchor="start" x="177.8392" y="-121.5" font-family="Times,serif" font-size="14.00" fill="#000000">Z = _2;</text>
<polyline fill="none" stroke="#000000" points="169.8392,-113.3 253.7336,-113.3 "/>
<text text-anchor="start" x="177.8392" y="-96.7" font-family="Times,serif" font-size="14.00" fill="#000000">return;</text>
</g>
<!-- fn_0_basic_block_3&#45;&gt;fn_0_basic_block_6 -->
<g id="edge4" class="edge">
<title>fn_0_basic_block_3:s-&gt;fn_0_basic_block_6:n</title>
<path fill="none" stroke="#0000ff" stroke-width="2" d="M100.7864,-249.1C100.7864,-201.2123 195.1201,-254.6594 209.8598,-222.6052"/>
<polygon fill="#0000ff" stroke="#0000ff" stroke-width="2" points="213.3516,-222.9786 211.7864,-212.5 206.4754,-221.6676 213.3516,-222.9786"/>
</g>
<!-- fn_0_basic_block_5 -->
<g id="node6" class="node">
<title>fn_0_basic_block_5</title>
<polygon fill="#d3d3d3" stroke="#000000" points="181.6965,-270.3 181.6965,-319.9 241.8763,-319.9 241.8763,-270.3 181.6965,-270.3"/>
<text text-anchor="start" x="189.6965" y="-303.3" font-family="Times,serif" font-size="14.00" fill="#000000">&lt;bb 5&gt;:</text>
<polyline fill="none" stroke="#000000" points="181.6965,-295.1 241.8763,-295.1 "/>
<text text-anchor="start" x="189.6965" y="-278.5" font-family="Times,serif" font-size="14.00" fill="#000000">c = 0;</text>
</g>
<!-- fn_0_basic_block_4&#45;&gt;fn_0_basic_block_5 -->
<g id="edge5" class="edge">
<title>fn_0_basic_block_4:s-&gt;fn_0_basic_block_5:n</title>
<path fill="none" stroke="#000000" stroke-width="2" d="M194.7864,-377.5C194.7864,-354.6351 207.3413,-348.3274 210.8724,-330.1192"/>
<polygon fill="#000000" stroke="#000000" stroke-width="2" points="214.3633,-330.3766 211.7864,-320.1 207.3923,-329.7407 214.3633,-330.3766"/>
</g>
<!-- fn_0_basic_block_4&#45;&gt;fn_0_basic_block_6 -->
<g id="edge6" class="edge">
<title>fn_0_basic_block_4:s-&gt;fn_0_basic_block_6:n</title>
<path fill="none" stroke="#000000" stroke-width="2" d="M194.7864,-377.5C194.7864,-347.8396 236.6227,-367.2602 250.7864,-341.2 270.3544,-305.1962 267.0923,-286.5938 250.7864,-249 243.0371,-231.1337 221.7579,-233.9932 214.3609,-222.493"/>
<polygon fill="#000000" stroke="#000000" stroke-width="2" points="217.6706,-221.3106 211.7864,-212.5 210.892,-223.057 217.6706,-221.3106"/>
</g>
<!-- fn_0_basic_block_5&#45;&gt;fn_0_basic_block_6 -->
<g id="edge7" class="edge">
<title>fn_0_basic_block_5:s-&gt;fn_0_basic_block_6:n</title>
<path fill="none" stroke="#0000ff" stroke-width="2" d="M211.7864,-270.1C211.7864,-248.3 211.7864,-240.423 211.7864,-222.7565"/>
<polygon fill="#0000ff" stroke="#0000ff" stroke-width="2" points="215.2865,-222.5 211.7864,-212.5 208.2865,-222.5 215.2865,-222.5"/>
</g>
<!-- fn_0_basic_block_6&#45;&gt;fn_0_basic_block_1 -->
<g id="edge8" class="edge">
<title>fn_0_basic_block_6:s-&gt;fn_0_basic_block_1:n</title>
<path fill="none" stroke="#000000" stroke-width="2" d="M211.7864,-88.5C211.7864,-76.3333 211.7864,-71.0104 211.7864,-62.2656"/>
<polygon fill="#000000" stroke="#000000" stroke-width="2" points="215.2865,-62 211.7864,-52 208.2865,-62 215.2865,-62"/>
</g>
</g>
</svg>