<?xml version="1.0" encoding="UTF-8" standalone="no"?><!DOCTYPE svg PUBLIC "-//W3C//DTD SVG 1.1//EN" "http://www.w3.org/Graphics/SVG/1.1/DTD/svg11.dtd"><!-- Generated by graphviz version 2.40.1 (20161225.0304)
 --><!-- Title: G Pages: 1 --><svg xmlns="http://www.w3.org/2000/svg" xmlns:xlink="http://www.w3.org/1999/xlink" width="175pt" height="470pt" viewBox="0.00 0.00 174.57 470.00">
<g id="graph0" class="graph" transform="scale(1 1) rotate(0) translate(4 466)">
<title>G</title>
<polygon fill="#ffffff" stroke="transparent" points="-4,4 -4,-466 170.5699,-466 170.5699,4 -4,4"/>
<g id="clust1" class="cluster">
<title>cluster_main</title>
<polygon fill="none" stroke="#000000" stroke-dasharray="5,2" points="20.5699,-8 20.5699,-454 158.5699,-454 158.5699,-8 20.5699,-8"/>
<text text-anchor="middle" x="89.5699" y="-437.4" font-family="Times,serif" font-size="14.00" fill="#000000">main ()</text>
</g>
<!-- fn_0_basic_block_0 -->
<g id="node1" class="node">
<title>fn_0_basic_block_0</title>
<polygon fill="#ffffff" stroke="#000000" points="89.5699,-421.2 28.3299,-403.2 89.5699,-385.2 150.8099,-403.2 89.5699,-421.2"/>
<polyline fill="none" stroke="#000000" points="39.8429,-406.584 39.8429,-399.816 "/>
<polyline fill="none" stroke="#000000" points="78.0569,-388.584 101.0829,-388.584 "/>
<polyline fill="none" stroke="#000000" points="139.2969,-399.816 139.2969,-406.584 "/>
<polyline fill="none" stroke="#000000" points="101.0829,-417.816 78.0569,-417.816 "/>
<text text-anchor="middle" x="89.5699" y="-399" font-family="Times,serif" font-size="14.00" fill="#000000">ENTRY</text>
</g>
<!-- fn_0_basic_block_1 -->
<g id="node2" class="node">
<title>fn_0_basic_block_1</title>
<polygon fill="#ffffff" stroke="#000000" points="97.5699,-52 50.6701,-34 97.5699,-16 144.4697,-34 97.5699,-52"/>
<polyline fill="none" stroke="#000000" points="61.8734,-38.2998 61.8734,-29.7002 "/>
<polyline fill="none" stroke="#000000" points="86.3667,-20.2998 108.7731,-20.2998 "/>
<polyline fill="none" stroke="#000000" points="133.2665,-29.7002 133.2665,-38.2998 "/>
<polyline fill="none" stroke="#000000" points="108.7731,-47.7002 86.3667,-47.7002 "/>
<text text-anchor="middle" x="97.5699" y="-29.8" font-family="Times,serif" font-size="14.00" fill="#000000">EXIT</text>
</g>
<!-- fn_0_basic_block_0&#45;&gt;fn_0_basic_block_1 -->
<!-- fn_0_basic_block_2 -->
<g id="node3" class="node">
<title>fn_0_basic_block_2</title>
<polygon fill="#d3d3d3" stroke="#000000" points="51.23,-199.9 51.23,-348.7 135.9098,-348.7 135.9098,-199.9 51.23,-199.9"/>
<text text-anchor="start" x="59.23" y="-332.1" font-family="Times,serif" font-size="14.00" fill="#000000">&lt;bb 2&gt;:</text>
<polyline fill="none" stroke="#000000" points="51.23,-323.9 135.9098,-323.9 "/>
<text text-anchor="start" x="59.23" y="-307.3" font-family="Times,serif" font-size="14.00" fill="#000000">_1 = a + c;</text>
<polyline fill="none" stroke="#000000" points="51.23,-299.1 135.9098,-299.1 "/>
<text text-anchor="start" x="59.23" y="-282.5" font-family="Times,serif" font-size="14.00" fill="#000000">_2 = b + _1;</text>
<polyline fill="none" stroke="#000000" points="51.23,-274.3 135.9098,-274.3 "/>
<text text-anchor="start" x="59.23" y="-257.7" font-family="Times,serif" font-size="14.00" fill="#000000">_3 = c + a;</text>
<polyline fill="none" stroke="#000000" points="51.23,-249.5 135.9098,-249.5 "/>
<text text-anchor="start" x="59.23" y="-232.9" font-family="Times,serif" font-size="14.00" fill="#000000">b = _2 * _3;</text>
<polyline fill="none" stroke="#000000" points="51.23,-224.7 135.9098,-224.7 "/>
<text text-anchor="start" x="59.23" y="-208.1" font-family="Times,serif" font-size="14.00" fill="#000000">D.1505 = b;</text>
</g>
<!-- fn_0_basic_block_0&#45;&gt;fn_0_basic_block_2 -->
<g id="edge1" class="edge">
<title>fn_0_basic_block_0:s-&gt;fn_0_basic_block_2:n</title>
<path fill="none" stroke="#0000ff" stroke-width="2" d="M89.5699,-385.2C89.5699,-372.6991 91.867,-367.4273 92.9797,-358.428"/>
<polygon fill="#0000ff" stroke="#0000ff" stroke-width="2" points="96.4821,-358.4867 93.5699,-348.3 89.494,-358.0794 96.4821,-358.4867"/>
</g>
<!-- fn_0_basic_block_3 -->
<g id="node4" class="node">
<title>fn_0_basic_block_3</title>
<polygon fill="#d3d3d3" stroke="#000000" points="48.3581,-88.5 48.3581,-162.9 146.7817,-162.9 146.7817,-88.5 48.3581,-88.5"/>
<text text-anchor="start" x="56.3581" y="-146.3" font-family="Times,serif" font-size="14.00" fill="#000000">&lt;bb 3&gt;:</text>
<polyline fill="none" stroke="#000000" points="48.3581,-138.1 146.7817,-138.1 "/>
<text text-anchor="start" x="56.3581" y="-121.5" font-family="Times,serif" font-size="14.00" fill="#000000">&lt;L0&gt;:</text>
<polyline fill="none" stroke="#000000" points="48.3581,-113.3 146.7817,-113.3 "/>
<text text-anchor="start" x="56.3581" y="-96.7" font-family="Times,serif" font-size="14.00" fill="#000000">return D.1505;</text>
</g>
<!-- fn_0_basic_block_2&#45;&gt;fn_0_basic_block_3 -->
<g id="edge2" class="edge">
<title>fn_0_basic_block_2:s-&gt;fn_0_basic_block_3:n</title>
<path fill="none" stroke="#0000ff" stroke-width="2" d="M93.5699,-200.3C93.5699,-187.4334 95.9147,-182.0794 97.0137,-172.7343"/>
<polygon fill="#0000ff" stroke="#0000ff" stroke-width="2" points="100.511,-172.8784 97.5699,-162.7 93.5218,-172.4909 100.511,-172.8784"/>
</g>
<!-- fn_0_basic_block_3&#45;&gt;fn_0_basic_block_1 -->
<g id="edge3" class="edge">
<title>fn_0_basic_block_3:s-&gt;fn_0_basic_block_1:n</title>
<path fill="none" stroke="#000000" stroke-width="2" d="M97.5699,-88.7C97.5699,-76.3392 97.5699,-71.0038 97.5699,-62.046"/>
<polygon fill="#000000" stroke="#000000" stroke-width="2" points="101.07,-62 97.5699,-52 94.07,-62 101.07,-62"/>
</g>
</g>
</svg>