<?xml version="1.0" encoding="UTF-8" standalone="no"?><!DOCTYPE svg PUBLIC "-//W3C//DTD SVG 1.1//EN" "http://www.w3.org/Graphics/SVG/1.1/DTD/svg11.dtd"><!-- Generated by graphviz version 2.40.1 (20161225.0304)
 --><!-- Title: G Pages: 1 --><svg xmlns="http://www.w3.org/2000/svg" xmlns:xlink="http://www.w3.org/1999/xlink" width="264pt" height="686pt" viewBox="0.00 0.00 264.00 685.60">
<g id="graph0" class="graph" transform="scale(1 1) rotate(0) translate(4 681.6)">
<title>G</title>
<polygon fill="#ffffff" stroke="transparent" points="-4,4 -4,-681.6 260,-681.6 260,4 -4,4"/>
<g id="clust1" class="cluster">
<title>cluster_main</title>
<polygon fill="none" stroke="#000000" stroke-dasharray="5,2" points="8,-8 8,-669.6 248,-669.6 248,-8 8,-8"/>
<text text-anchor="middle" x="128" y="-653" font-family="Times,serif" font-size="14.00" fill="#000000">main ()</text>
</g>
<!-- fn_0_basic_block_0 -->
<g id="node1" class="node">
<title>fn_0_basic_block_0</title>
<polygon fill="#ffffff" stroke="#000000" points="103,-636.8 41.76,-618.8 103,-600.8 164.24,-618.8 103,-636.8"/>
<polyline fill="none" stroke="#000000" points="53.273,-622.184 53.273,-615.416 "/>
<polyline fill="none" stroke="#000000" points="91.487,-604.184 114.513,-604.184 "/>
<polyline fill="none" stroke="#000000" points="152.727,-615.416 152.727,-622.184 "/>
<polyline fill="none" stroke="#000000" points="114.513,-633.416 91.487,-633.416 "/>
<text text-anchor="middle" x="103" y="-614.6" font-family="Times,serif" font-size="14.00" fill="#000000">ENTRY</text>
</g>
<!-- fn_0_basic_block_1 -->
<g id="node2" class="node">
<title>fn_0_basic_block_1</title>
<polygon fill="#ffffff" stroke="#000000" points="99,-52 52.1002,-34 99,-16 145.8998,-34 99,-52"/>
<polyline fill="none" stroke="#000000" points="63.3034,-38.2998 63.3034,-29.7002 "/>
<polyline fill="none" stroke="#000000" points="87.7968,-20.2998 110.2032,-20.2998 "/>
<polyline fill="none" stroke="#000000" points="134.6966,-29.7002 134.6966,-38.2998 "/>
<polyline fill="none" stroke="#000000" points="110.2032,-47.7002 87.7968,-47.7002 "/>
<text text-anchor="middle" x="99" y="-29.8" font-family="Times,serif" font-size="14.00" fill="#000000">EXIT</text>
</g>
<!-- fn_0_basic_block_0&#45;&gt;fn_0_basic_block_1 -->
<!-- fn_0_basic_block_2 -->
<g id="node3" class="node">
<title>fn_0_basic_block_2</title>
<polygon fill="#d3d3d3" stroke="#000000" points="36.3673,-439.5 36.3673,-564.3 169.6327,-564.3 169.6327,-439.5 36.3673,-439.5"/>
<text text-anchor="start" x="44.3673" y="-547.7" font-family="Times,serif" font-size="14.00" fill="#000000">&lt;bb 2&gt;:</text>
<polyline fill="none" stroke="#000000" points="36.3673,-539.5 169.6327,-539.5 "/>
<text text-anchor="start" x="44.3673" y="-522.9" font-family="Times,serif" font-size="14.00" fill="#000000">d = 10;</text>
<polyline fill="none" stroke="#000000" points="36.3673,-514.7 169.6327,-514.7 "/>
<text text-anchor="start" x="44.3673" y="-498.1" font-family="Times,serif" font-size="14.00" fill="#000000">if (c &gt; d)</text>
<text text-anchor="start" x="44.3673" y="-481.3" font-family="Times,serif" font-size="14.00" fill="#000000">  goto &lt;bb 3&gt;; [INV]</text>
<text text-anchor="start" x="44.3673" y="-464.5" font-family="Times,serif" font-size="14.00" fill="#000000">else</text>
<text text-anchor="start" x="44.3673" y="-447.7" font-family="Times,serif" font-size="14.00" fill="#000000">  goto &lt;bb 4&gt;; [INV]</text>
</g>
<!-- fn_0_basic_block_0&#45;&gt;fn_0_basic_block_2 -->
<g id="edge1" class="edge">
<title>fn_0_basic_block_0:s-&gt;fn_0_basic_block_2:n</title>
<path fill="none" stroke="#0000ff" stroke-width="2" d="M103,-600.8C103,-588.3719 103,-583.0074 103,-574.0007"/>
<polygon fill="#0000ff" stroke="#0000ff" stroke-width="2" points="106.5001,-573.9 103,-563.9 99.5001,-573.9 106.5001,-573.9"/>
</g>
<!-- fn_0_basic_block_3 -->
<g id="node4" class="node">
<title>fn_0_basic_block_3</title>
<polygon fill="#d3d3d3" stroke="#000000" points="35.8673,-311.3 35.8673,-402.5 162.1327,-402.5 162.1327,-311.3 35.8673,-311.3"/>
<text text-anchor="start" x="43.8673" y="-385.9" font-family="Times,serif" font-size="14.00" fill="#000000">&lt;bb 3&gt;:</text>
<polyline fill="none" stroke="#000000" points="35.8673,-377.7 162.1327,-377.7 "/>
<text text-anchor="start" x="43.8673" y="-361.1" font-family="Times,serif" font-size="14.00" fill="#000000">a = 3;</text>
<polyline fill="none" stroke="#000000" points="35.8673,-352.9 162.1327,-352.9 "/>
<text text-anchor="start" x="43.8673" y="-336.3" font-family="Times,serif" font-size="14.00" fill="#000000">b = 2;</text>
<text text-anchor="start" x="43.8673" y="-319.5" font-family="Times,serif" font-size="14.00" fill="#000000">goto &lt;bb 5&gt;; [INV]</text>
</g>
<!-- fn_0_basic_block_2&#45;&gt;fn_0_basic_block_3 -->
<g id="edge2" class="edge">
<title>fn_0_basic_block_2:s-&gt;fn_0_basic_block_3:n</title>
<path fill="none" stroke="#000000" stroke-width="2" d="M103,-439.9C103,-427.3656 100.7029,-422.079 99.5902,-413.0553"/>
<polygon fill="#000000" stroke="#000000" stroke-width="2" points="103.0744,-412.68 99,-402.9 96.0862,-413.0863 103.0744,-412.68"/>
</g>
<!-- fn_0_basic_block_4 -->
<g id="node5" class="node">
<title>fn_0_basic_block_4</title>
<polygon fill="#d3d3d3" stroke="#000000" points="179.9101,-319.7 179.9101,-394.1 240.0899,-394.1 240.0899,-319.7 179.9101,-319.7"/>
<text text-anchor="start" x="187.9101" y="-377.5" font-family="Times,serif" font-size="14.00" fill="#000000">&lt;bb 4&gt;:</text>
<polyline fill="none" stroke="#000000" points="179.9101,-369.3 240.0899,-369.3 "/>
<text text-anchor="start" x="187.9101" y="-352.7" font-family="Times,serif" font-size="14.00" fill="#000000">a = 2;</text>
<polyline fill="none" stroke="#000000" points="179.9101,-344.5 240.0899,-344.5 "/>
<text text-anchor="start" x="187.9101" y="-327.9" font-family="Times,serif" font-size="14.00" fill="#000000">b = 3;</text>
</g>
<!-- fn_0_basic_block_2&#45;&gt;fn_0_basic_block_4 -->
<g id="edge3" class="edge">
<title>fn_0_basic_block_2:s-&gt;fn_0_basic_block_4:n</title>
<path fill="none" stroke="#000000" stroke-width="2" d="M103,-439.9C103,-392.1801 193.9343,-437.3423 208.1428,-404.1352"/>
<polygon fill="#000000" stroke="#000000" stroke-width="2" points="211.6583,-404.3642 210,-393.9 204.7708,-403.1144 211.6583,-404.3642"/>
</g>
<!-- fn_0_basic_block_5 -->
<g id="node6" class="node">
<title>fn_0_basic_block_5</title>
<polygon fill="#d3d3d3" stroke="#000000" points="57.3041,-199.9 57.3041,-274.3 140.6959,-274.3 140.6959,-199.9 57.3041,-199.9"/>
<text text-anchor="start" x="65.3041" y="-257.7" font-family="Times,serif" font-size="14.00" fill="#000000">&lt;bb 5&gt;:</text>
<polyline fill="none" stroke="#000000" points="57.3041,-249.5 140.6959,-249.5 "/>
<text text-anchor="start" x="65.3041" y="-232.9" font-family="Times,serif" font-size="14.00" fill="#000000">c = a + b;</text>
<polyline fill="none" stroke="#000000" points="57.3041,-224.7 140.6959,-224.7 "/>
<text text-anchor="start" x="65.3041" y="-208.1" font-family="Times,serif" font-size="14.00" fill="#000000">D.1509 = 0;</text>
</g>
<!-- fn_0_basic_block_3&#45;&gt;fn_0_basic_block_5 -->
<g id="edge4" class="edge">
<title>fn_0_basic_block_3:s-&gt;fn_0_basic_block_5:n</title>
<path fill="none" stroke="#0000ff" stroke-width="2" d="M99,-310.9C99,-298.5056 99,-293.1556 99,-284.1733"/>
<polygon fill="#0000ff" stroke="#0000ff" stroke-width="2" points="102.5001,-284.1 99,-274.1 95.5001,-284.1 102.5001,-284.1"/>
</g>
<!-- fn_0_basic_block_4&#45;&gt;fn_0_basic_block_5 -->
<g id="edge5" class="edge">
<title>fn_0_basic_block_4:s-&gt;fn_0_basic_block_5:n</title>
<path fill="none" stroke="#0000ff" stroke-width="2" d="M210,-319.9C210,-270.4931 114.8651,-319.0523 100.7435,-284.1872"/>
<polygon fill="#0000ff" stroke="#0000ff" stroke-width="2" points="104.1522,-283.3577 99,-274.1 97.2544,-284.55 104.1522,-283.3577"/>
</g>
<!-- fn_0_basic_block_6 -->
<g id="node7" class="node">
<title>fn_0_basic_block_6</title>
<polygon fill="#d3d3d3" stroke="#000000" points="49.7882,-88.5 49.7882,-162.9 148.2118,-162.9 148.2118,-88.5 49.7882,-88.5"/>
<text text-anchor="start" x="57.7882" y="-146.3" font-family="Times,serif" font-size="14.00" fill="#000000">&lt;bb 6&gt;:</text>
<polyline fill="none" stroke="#000000" points="49.7882,-138.1 148.2118,-138.1 "/>
<text text-anchor="start" x="57.7882" y="-121.5" font-family="Times,serif" font-size="14.00" fill="#000000">&lt;L3&gt;:</text>
<polyline fill="none" stroke="#000000" points="49.7882,-113.3 148.2118,-113.3 "/>
<text text-anchor="start" x="57.7882" y="-96.7" font-family="Times,serif" font-size="14.00" fill="#000000">return D.1509;</text>
</g>
<!-- fn_0_basic_block_5&#45;&gt;fn_0_basic_block_6 -->
<g id="edge6" class="edge">
<title>fn_0_basic_block_5:s-&gt;fn_0_basic_block_6:n</title>
<path fill="none" stroke="#0000ff" stroke-width="2" d="M99,-200.1C99,-187.5035 99,-182.0663 99,-172.9376"/>
<polygon fill="#0000ff" stroke="#0000ff" stroke-width="2" points="102.5001,-172.7 99,-162.7 95.5001,-172.7 102.5001,-172.7"/>
</g>
<!-- fn_0_basic_block_6&#45;&gt;fn_0_basic_block_1 -->
<g id="edge7" class="edge">
<title>fn_0_basic_block_6:s-&gt;fn_0_basic_block_1:n</title>
<path fill="none" stroke="#000000" stroke-width="2" d="M99,-88.7C99,-76.3392 99,-71.0038 99,-62.046"/>
<polygon fill="#000000" stroke="#000000" stroke-width="2" points="102.5001,-62 99,-52 95.5001,-62 102.5001,-62"/>
</g>
</g>
</svg>