<?xml version="1.0" encoding="UTF-8" standalone="no"?><!DOCTYPE svg PUBLIC "-//W3C//DTD SVG 1.1//EN" "http://www.w3.org/Graphics/SVG/1.1/DTD/svg11.dtd"><!-- Generated by graphviz version 2.40.1 (20161225.0304)
 --><!-- Title: G Pages: 1 --><svg xmlns="http://www.w3.org/2000/svg" xmlns:xlink="http://www.w3.org/1999/xlink" width="458pt" height="689pt" viewBox="0.00 0.00 458.00 689.00">
<g id="graph0" class="graph" transform="scale(1 1) rotate(0) translate(4 685)">
<title>G</title>
<polygon fill="#ffffff" stroke="transparent" points="-4,4 -4,-685 454,-685 454,4 -4,4"/>
<g id="clust1" class="cluster">
<title>cluster_main</title>
<polygon fill="none" stroke="#000000" stroke-dasharray="5,2" points="8,-8 8,-673 442,-673 442,-8 8,-8"/>
<text text-anchor="middle" x="225" y="-656.4" font-family="Times,serif" font-size="14.00" fill="#000000">main ()</text>
</g>
<g id="clust2" class="cluster">
<title>cluster_13_1</title>
<polygon fill="#e0e0e0" stroke="#006400" stroke-width="2" points="184,-16 184,-492.8 434,-492.8 434,-16 184,-16"/>
<text text-anchor="middle" x="209.6953" y="-476.2" font-family="Times,serif" font-size="14.00" fill="#000000">loop 1</text>
</g>
<!-- fn_13_basic_block_7 -->
<g id="node1" class="node">
<title>fn_13_basic_block_7</title>
<polygon fill="#d3d3d3" stroke="#000000" points="192.3673,-359.5 192.3673,-459.5 325.6327,-459.5 325.6327,-359.5 192.3673,-359.5"/>
<text text-anchor="start" x="200.3673" y="-442.9" font-family="Times,serif" font-size="14.00" fill="#000000">&lt;bb 7&gt;:</text>
<polyline fill="none" stroke="#000000" points="192.3673,-434.7 325.6327,-434.7 "/>
<text text-anchor="start" x="200.3673" y="-418.1" font-family="Times,serif" font-size="14.00" fill="#000000">if (a &lt;= 99)</text>
<text text-anchor="start" x="200.3673" y="-401.3" font-family="Times,serif" font-size="14.00" fill="#000000">  goto &lt;bb 3&gt;; [INV]</text>
<text text-anchor="start" x="200.3673" y="-384.5" font-family="Times,serif" font-size="14.00" fill="#000000">else</text>
<text text-anchor="start" x="200.3673" y="-367.7" font-family="Times,serif" font-size="14.00" fill="#000000">  goto &lt;bb 8&gt;; [INV]</text>
</g>
<!-- fn_13_basic_block_3 -->
<g id="node2" class="node">
<title>fn_13_basic_block_3</title>
<polygon fill="#d3d3d3" stroke="#000000" points="194.3673,-222.5 194.3673,-322.5 327.6327,-322.5 327.6327,-222.5 194.3673,-222.5"/>
<text text-anchor="start" x="202.3673" y="-305.9" font-family="Times,serif" font-size="14.00" fill="#000000">&lt;bb 3&gt;:</text>
<polyline fill="none" stroke="#000000" points="194.3673,-297.7 327.6327,-297.7 "/>
<text text-anchor="start" x="202.3673" y="-281.1" font-family="Times,serif" font-size="14.00" fill="#000000">if (a &lt;= 3)</text>
<text text-anchor="start" x="202.3673" y="-264.3" font-family="Times,serif" font-size="14.00" fill="#000000">  goto &lt;bb 4&gt;; [INV]</text>
<text text-anchor="start" x="202.3673" y="-247.5" font-family="Times,serif" font-size="14.00" fill="#000000">else</text>
<text text-anchor="start" x="202.3673" y="-230.7" font-family="Times,serif" font-size="14.00" fill="#000000">  goto &lt;bb 5&gt;; [INV]</text>
</g>
<!-- fn_13_basic_block_7&#45;&gt;fn_13_basic_block_3 -->
<g id="edge8" class="edge">
<title>fn_13_basic_block_7:s-&gt;fn_13_basic_block_3:n</title>
<path fill="none" stroke="#000000" stroke-width="2" d="M259,-359.5C259,-347.02 260.1486,-341.6641 260.7049,-332.6349"/>
<polygon fill="#000000" stroke="#000000" stroke-width="2" points="264.2074,-332.5977 261,-322.5 257.2103,-332.3939 264.2074,-332.5977"/>
</g>
<!-- fn_13_basic_block_8 -->
<g id="node9" class="node">
<title>fn_13_basic_block_8</title>
<polygon fill="#d3d3d3" stroke="#000000" points="36.1144,-235.3 36.1144,-309.7 175.8856,-309.7 175.8856,-235.3 36.1144,-235.3"/>
<text text-anchor="start" x="44.1144" y="-293.1" font-family="Times,serif" font-size="14.00" fill="#000000">&lt;bb 8&gt;:</text>
<polyline fill="none" stroke="#000000" points="36.1144,-284.9 175.8856,-284.9 "/>
<text text-anchor="start" x="44.1144" y="-268.3" font-family="Times,serif" font-size="14.00" fill="#000000">printf ("%d%d", a, b);</text>
<polyline fill="none" stroke="#000000" points="36.1144,-260.1 175.8856,-260.1 "/>
<text text-anchor="start" x="44.1144" y="-243.5" font-family="Times,serif" font-size="14.00" fill="#000000">D.2018 = 0;</text>
</g>
<!-- fn_13_basic_block_7&#45;&gt;fn_13_basic_block_8 -->
<g id="edge9" class="edge">
<title>fn_13_basic_block_7:s-&gt;fn_13_basic_block_8:n</title>
<path fill="none" stroke="#000000" stroke-width="2" d="M259,-359.5C259,-291.7336 121.7112,-371.68 107.2316,-319.4926"/>
<polygon fill="#000000" stroke="#000000" stroke-width="2" points="110.697,-318.9967 106,-309.5 103.7496,-319.8531 110.697,-318.9967"/>
</g>
<!-- fn_13_basic_block_4 -->
<g id="node3" class="node">
<title>fn_13_basic_block_4</title>
<polygon fill="#d3d3d3" stroke="#000000" points="191.8673,-115.1 191.8673,-181.5 318.1327,-181.5 318.1327,-115.1 191.8673,-115.1"/>
<text text-anchor="start" x="199.8673" y="-164.9" font-family="Times,serif" font-size="14.00" fill="#000000">&lt;bb 4&gt;:</text>
<polyline fill="none" stroke="#000000" points="191.8673,-156.7 318.1327,-156.7 "/>
<text text-anchor="start" x="199.8673" y="-140.1" font-family="Times,serif" font-size="14.00" fill="#000000">b = b + 2;</text>
<text text-anchor="start" x="199.8673" y="-123.3" font-family="Times,serif" font-size="14.00" fill="#000000">goto &lt;bb 6&gt;; [INV]</text>
</g>
<!-- fn_13_basic_block_3&#45;&gt;fn_13_basic_block_4 -->
<g id="edge3" class="edge">
<title>fn_13_basic_block_3:s-&gt;fn_13_basic_block_4:n</title>
<path fill="none" stroke="#000000" stroke-width="2" d="M261,-222.5C261,-207.899 257.2643,-202.2094 255.6883,-191.3679"/>
<polygon fill="#000000" stroke="#000000" stroke-width="2" points="259.174,-191.038 255,-181.3 252.1903,-191.5155 259.174,-191.038"/>
</g>
<!-- fn_13_basic_block_5 -->
<g id="node4" class="node">
<title>fn_13_basic_block_5</title>
<polygon fill="#d3d3d3" stroke="#000000" points="336.1074,-123.5 336.1074,-173.1 405.8926,-173.1 405.8926,-123.5 336.1074,-123.5"/>
<text text-anchor="start" x="344.1074" y="-156.5" font-family="Times,serif" font-size="14.00" fill="#000000">&lt;bb 5&gt;:</text>
<polyline fill="none" stroke="#000000" points="336.1074,-148.3 405.8926,-148.3 "/>
<text text-anchor="start" x="344.1074" y="-131.7" font-family="Times,serif" font-size="14.00" fill="#000000">b = b * 2;</text>
</g>
<!-- fn_13_basic_block_3&#45;&gt;fn_13_basic_block_5 -->
<g id="edge4" class="edge">
<title>fn_13_basic_block_3:s-&gt;fn_13_basic_block_5:n</title>
<path fill="none" stroke="#000000" stroke-width="2" d="M261,-222.5C261,-172.9186 355.2778,-218.8739 369.2722,-183.4737"/>
<polygon fill="#000000" stroke="#000000" stroke-width="2" points="372.7762,-183.7449 371,-173.3 365.875,-182.5728 372.7762,-183.7449"/>
</g>
<!-- fn_13_basic_block_6 -->
<g id="node5" class="node">
<title>fn_13_basic_block_6</title>
<polygon fill="#d3d3d3" stroke="#000000" points="278.4455,-24.5 278.4455,-74.1 347.5545,-74.1 347.5545,-24.5 278.4455,-24.5"/>
<text text-anchor="start" x="286.4455" y="-57.5" font-family="Times,serif" font-size="14.00" fill="#000000">&lt;bb 6&gt;:</text>
<polyline fill="none" stroke="#000000" points="278.4455,-49.3 347.5545,-49.3 "/>
<text text-anchor="start" x="286.4455" y="-32.7" font-family="Times,serif" font-size="14.00" fill="#000000">a = a + 1;</text>
</g>
<!-- fn_13_basic_block_4&#45;&gt;fn_13_basic_block_6 -->
<g id="edge5" class="edge">
<title>fn_13_basic_block_4:s-&gt;fn_13_basic_block_6:n</title>
<path fill="none" stroke="#0000ff" stroke-width="2" d="M255,-115.3C255,-87.9246 298.6168,-100.9355 310.2025,-84.2876"/>
<polygon fill="#0000ff" stroke="#0000ff" stroke-width="2" points="313.6731,-84.8734 313,-74.3 306.9325,-82.9854 313.6731,-84.8734"/>
</g>
<!-- fn_13_basic_block_5&#45;&gt;fn_13_basic_block_6 -->
<g id="edge6" class="edge">
<title>fn_13_basic_block_5:s-&gt;fn_13_basic_block_6:n</title>
<path fill="none" stroke="#0000ff" stroke-width="2" d="M371,-123.3C371,-93.509 325.7972,-104.4291 315.2028,-84.1797"/>
<polygon fill="#0000ff" stroke="#0000ff" stroke-width="2" points="318.5924,-83.2986 313,-74.3 311.7602,-84.822 318.5924,-83.2986"/>
</g>
<!-- fn_13_basic_block_6&#45;&gt;fn_13_basic_block_7 -->
<g id="edge7" class="edge">
<title>fn_13_basic_block_6:s-&gt;fn_13_basic_block_7:n</title>
<path fill="none" stroke="#0000ff" stroke-width="2" stroke-dasharray="1,5" d="M313,-24.3C313,-8.9424 333.7507,-17.5687 347.5545,-24.3 391.3089,-45.6365 399.1481,-64.5738 415,-110.6 425.9125,-142.2846 420.2697,-152.9058 415,-186 394.8904,-312.2891 429.1522,-384.4197 325.6327,-459.5 305.0308,-474.442 270.6285,-485.5735 261.3602,-469.6133"/>
<polygon fill="#0000ff" stroke="#0000ff" stroke-width="2" points="264.6812,-468.4428 259,-459.5 257.8644,-470.0338 264.6812,-468.4428"/>
</g>
<!-- fn_13_basic_block_0 -->
<g id="node6" class="node">
<title>fn_13_basic_block_0</title>
<polygon fill="#ffffff" stroke="#000000" points="259,-640.2 197.76,-622.2 259,-604.2 320.24,-622.2 259,-640.2"/>
<polyline fill="none" stroke="#000000" points="209.273,-625.584 209.273,-618.816 "/>
<polyline fill="none" stroke="#000000" points="247.487,-607.584 270.513,-607.584 "/>
<polyline fill="none" stroke="#000000" points="308.727,-618.816 308.727,-625.584 "/>
<polyline fill="none" stroke="#000000" points="270.513,-636.816 247.487,-636.816 "/>
<text text-anchor="middle" x="259" y="-618" font-family="Times,serif" font-size="14.00" fill="#000000">ENTRY</text>
</g>
<!-- fn_13_basic_block_1 -->
<g id="node7" class="node">
<title>fn_13_basic_block_1</title>
<polygon fill="#ffffff" stroke="#000000" points="106,-67.3 59.1002,-49.3 106,-31.3 152.8998,-49.3 106,-67.3"/>
<polyline fill="none" stroke="#000000" points="70.3034,-53.5998 70.3034,-45.0002 "/>
<polyline fill="none" stroke="#000000" points="94.7968,-35.5998 117.2032,-35.5998 "/>
<polyline fill="none" stroke="#000000" points="141.6966,-45.0002 141.6966,-53.5998 "/>
<polyline fill="none" stroke="#000000" points="117.2032,-63.0002 94.7968,-63.0002 "/>
<text text-anchor="middle" x="106" y="-45.1" font-family="Times,serif" font-size="14.00" fill="#000000">EXIT</text>
</g>
<!-- fn_13_basic_block_0&#45;&gt;fn_13_basic_block_1 -->
<!-- fn_13_basic_block_2 -->
<g id="node8" class="node">
<title>fn_13_basic_block_2</title>
<polygon fill="#d3d3d3" stroke="#000000" points="195.8673,-501.3 195.8673,-567.7 322.1327,-567.7 322.1327,-501.3 195.8673,-501.3"/>
<text text-anchor="start" x="203.8673" y="-551.1" font-family="Times,serif" font-size="14.00" fill="#000000">&lt;bb 2&gt;:</text>
<polyline fill="none" stroke="#000000" points="195.8673,-542.9 322.1327,-542.9 "/>
<text text-anchor="start" x="203.8673" y="-526.3" font-family="Times,serif" font-size="14.00" fill="#000000">a = 4;</text>
<text text-anchor="start" x="203.8673" y="-509.5" font-family="Times,serif" font-size="14.00" fill="#000000">goto &lt;bb 7&gt;; [INV]</text>
</g>
<!-- fn_13_basic_block_0&#45;&gt;fn_13_basic_block_2 -->
<g id="edge1" class="edge">
<title>fn_13_basic_block_0:s-&gt;fn_13_basic_block_2:n</title>
<path fill="none" stroke="#0000ff" stroke-width="2" d="M259,-604.2C259,-591.8392 259,-586.5038 259,-577.546"/>
<polygon fill="#0000ff" stroke="#0000ff" stroke-width="2" points="262.5001,-577.5 259,-567.5 255.5001,-577.5 262.5001,-577.5"/>
</g>
<!-- fn_13_basic_block_2&#45;&gt;fn_13_basic_block_7 -->
<g id="edge2" class="edge">
<title>fn_13_basic_block_2:s-&gt;fn_13_basic_block_7:n</title>
<path fill="none" stroke="#0000ff" stroke-width="2" d="M259,-501.5C259,-486.7708 259,-480.7583 259,-469.7065"/>
<polygon fill="#0000ff" stroke="#0000ff" stroke-width="2" points="262.5001,-469.5 259,-459.5 255.5001,-469.5 262.5001,-469.5"/>
</g>
<!-- fn_13_basic_block_9 -->
<g id="node10" class="node">
<title>fn_13_basic_block_9</title>
<polygon fill="#d3d3d3" stroke="#000000" points="56.7882,-111.1 56.7882,-185.5 155.2118,-185.5 155.2118,-111.1 56.7882,-111.1"/>
<text text-anchor="start" x="64.7882" y="-168.9" font-family="Times,serif" font-size="14.00" fill="#000000">&lt;bb 9&gt;:</text>
<polyline fill="none" stroke="#000000" points="56.7882,-160.7 155.2118,-160.7 "/>
<text text-anchor="start" x="64.7882" y="-144.1" font-family="Times,serif" font-size="14.00" fill="#000000">&lt;L6&gt;:</text>
<polyline fill="none" stroke="#000000" points="56.7882,-135.9 155.2118,-135.9 "/>
<text text-anchor="start" x="64.7882" y="-119.3" font-family="Times,serif" font-size="14.00" fill="#000000">return D.2018;</text>
</g>
<!-- fn_13_basic_block_8&#45;&gt;fn_13_basic_block_9 -->
<g id="edge10" class="edge">
<title>fn_13_basic_block_8:s-&gt;fn_13_basic_block_9:n</title>
<path fill="none" stroke="#0000ff" stroke-width="2" d="M106,-235.5C106,-217.0236 106,-210.0228 106,-195.4911"/>
<polygon fill="#0000ff" stroke="#0000ff" stroke-width="2" points="109.5001,-195.3 106,-185.3 102.5001,-195.3 109.5001,-195.3"/>
</g>
<!-- fn_13_basic_block_9&#45;&gt;fn_13_basic_block_1 -->
<g id="edge11" class="edge">
<title>fn_13_basic_block_9:s-&gt;fn_13_basic_block_1:n</title>
<path fill="none" stroke="#000000" stroke-width="2" d="M106,-111.3C106,-95.7167 106,-89.4468 106,-77.6471"/>
<polygon fill="#000000" stroke="#000000" stroke-width="2" points="109.5001,-77.3 106,-67.3 102.5001,-77.3 109.5001,-77.3"/>
</g>
</g>
</svg>