<?xml version="1.0" encoding="UTF-8" standalone="no"?><!DOCTYPE svg PUBLIC "-//W3C//DTD SVG 1.1//EN" "http://www.w3.org/Graphics/SVG/1.1/DTD/svg11.dtd"><!-- Generated by graphviz version 2.40.1 (20161225.0304)
 --><!-- Title: G Pages: 1 --><svg xmlns="http://www.w3.org/2000/svg" xmlns:xlink="http://www.w3.org/1999/xlink" width="465pt" height="989pt" viewBox="0.00 0.00 465.48 988.60">
<g id="graph0" class="graph" transform="scale(1 1) rotate(0) translate(4 984.6)">
<title>G</title>
<polygon fill="#ffffff" stroke="transparent" points="-4,4 -4,-984.6 461.4751,-984.6 461.4751,4 -4,4"/>
<g id="clust1" class="cluster">
<title>cluster_main</title>
<polygon fill="none" stroke="#000000" stroke-dasharray="5,2" points="8,-8 8,-972.6 388,-972.6 388,-8 8,-8"/>
<text text-anchor="middle" x="198" y="-956" font-family="Times,serif" font-size="14.00" fill="#000000">main ()</text>
</g>
<g id="clust2" class="cluster">
<title>cluster_0_2</title>
<polygon fill="#e0e0e0" stroke="#006400" stroke-width="2" points="142,-16 142,-547.2 380,-547.2 380,-16 142,-16"/>
<text text-anchor="middle" x="167.6953" y="-530.6" font-family="Times,serif" font-size="14.00" fill="#000000">loop 2</text>
</g>
<g id="clust3" class="cluster">
<title>cluster_0_3</title>
<polygon fill="#c4c4c4" stroke="#006400" stroke-width="2" points="150,-24 150,-302 300,-302 300,-24 150,-24"/>
<text text-anchor="middle" x="175.6953" y="-285.4" font-family="Times,serif" font-size="14.00" fill="#000000">loop 3</text>
</g>
<g id="clust4" class="cluster">
<title>cluster_0_1</title>
<polygon fill="#e0e0e0" stroke="#006400" stroke-width="2" points="230,-555.6 230,-792.4 380,-792.4 380,-555.6 230,-555.6"/>
<text text-anchor="middle" x="255.6953" y="-775.8" font-family="Times,serif" font-size="14.00" fill="#000000">loop 1</text>
</g>
<!-- fn_0_basic_block_8 -->
<g id="node1" class="node">
<title>fn_0_basic_block_8</title>
<polygon fill="#d3d3d3" stroke="#000000" points="158.3673,-168.7 158.3673,-268.7 291.6327,-268.7 291.6327,-168.7 158.3673,-168.7"/>
<text text-anchor="start" x="166.3673" y="-252.1" font-family="Times,serif" font-size="14.00" fill="#000000">&lt;bb 8&gt;:</text>
<polyline fill="none" stroke="#000000" points="158.3673,-243.9 291.6327,-243.9 "/>
<text text-anchor="start" x="166.3673" y="-227.3" font-family="Times,serif" font-size="14.00" fill="#000000">if (j &lt;= 49)</text>
<text text-anchor="start" x="166.3673" y="-210.5" font-family="Times,serif" font-size="14.00" fill="#000000">  goto &lt;bb 7&gt;; [INV]</text>
<text text-anchor="start" x="166.3673" y="-193.7" font-family="Times,serif" font-size="14.00" fill="#000000">else</text>
<text text-anchor="start" x="166.3673" y="-176.9" font-family="Times,serif" font-size="14.00" fill="#000000">  goto &lt;bb 9&gt;; [INV]</text>
</g>
<!-- fn_0_basic_block_7 -->
<g id="node2" class="node">
<title>fn_0_basic_block_7</title>
<polygon fill="#d3d3d3" stroke="#000000" points="169.8249,-32.5 169.8249,-131.7 280.1751,-131.7 280.1751,-32.5 169.8249,-32.5"/>
<text text-anchor="start" x="177.8249" y="-115.1" font-family="Times,serif" font-size="14.00" fill="#000000">&lt;bb 7&gt;:</text>
<polyline fill="none" stroke="#000000" points="169.8249,-106.9 280.1751,-106.9 "/>
<text text-anchor="start" x="177.8249" y="-90.3" font-family="Times,serif" font-size="14.00" fill="#000000">_1 = i * j;</text>
<polyline fill="none" stroke="#000000" points="169.8249,-82.1 280.1751,-82.1 "/>
<text text-anchor="start" x="177.8249" y="-65.5" font-family="Times,serif" font-size="14.00" fill="#000000">sum = sum + _1;</text>
<polyline fill="none" stroke="#000000" points="169.8249,-57.3 280.1751,-57.3 "/>
<text text-anchor="start" x="177.8249" y="-40.7" font-family="Times,serif" font-size="14.00" fill="#000000">j = j + 1;</text>
</g>
<!-- fn_0_basic_block_8&#45;&gt;fn_0_basic_block_7 -->
<g id="edge9" class="edge">
<title>fn_0_basic_block_8:s-&gt;fn_0_basic_block_7:n</title>
<path fill="none" stroke="#000000" stroke-width="2" d="M225,-168.7C225,-156.3729 225,-151.052 225,-142.1186"/>
<polygon fill="#000000" stroke="#000000" stroke-width="2" points="228.5001,-142.1 225,-132.1 221.5001,-142.1 228.5001,-142.1"/>
</g>
<!-- fn_0_basic_block_9 -->
<g id="node5" class="node">
<title>fn_0_basic_block_9</title>
<polygon fill="#d3d3d3" stroke="#000000" points="307.7695,-57.3 307.7695,-106.9 372.2305,-106.9 372.2305,-57.3 307.7695,-57.3"/>
<text text-anchor="start" x="315.7695" y="-90.3" font-family="Times,serif" font-size="14.00" fill="#000000">&lt;bb 9&gt;:</text>
<polyline fill="none" stroke="#000000" points="307.7695,-82.1 372.2305,-82.1 "/>
<text text-anchor="start" x="315.7695" y="-65.5" font-family="Times,serif" font-size="14.00" fill="#000000">i = i + 1;</text>
</g>
<!-- fn_0_basic_block_8&#45;&gt;fn_0_basic_block_9 -->
<g id="edge10" class="edge">
<title>fn_0_basic_block_8:s-&gt;fn_0_basic_block_9:n</title>
<path fill="none" stroke="#000000" stroke-width="2" d="M225,-168.7C225,-114.5686 325.2337,-158.357 338.546,-117.2306"/>
<polygon fill="#000000" stroke="#000000" stroke-width="2" points="342.0437,-117.4958 340,-107.1 335.1147,-116.5013 342.0437,-117.4958"/>
</g>
<!-- fn_0_basic_block_7&#45;&gt;fn_0_basic_block_8 -->
<g id="edge8" class="edge">
<title>fn_0_basic_block_7:s-&gt;fn_0_basic_block_8:n</title>
<path fill="none" stroke="#0000ff" stroke-width="2" stroke-dasharray="1,5" d="M225,-32.1C225,-7.5777 262.4227,-15.1827 280.1751,-32.1 284.2056,-35.9409 284.3601,-126.6693 285,-132.2 286.8698,-148.3615 290.1526,-151.9982 291.6327,-168.2 292.6486,-179.3204 299.5287,-260.804 291.6327,-268.7 283.5346,-276.7981 248.1032,-281.2273 232.464,-275.9676"/>
<polygon fill="#0000ff" stroke="#0000ff" stroke-width="2" points="234.6064,-273.1685 225,-268.7 229.7231,-278.1838 234.6064,-273.1685"/>
</g>
<!-- fn_0_basic_block_10 -->
<g id="node3" class="node">
<title>fn_0_basic_block_10</title>
<polygon fill="#d3d3d3" stroke="#000000" points="149.8673,-413.9 149.8673,-513.9 290.1327,-513.9 290.1327,-413.9 149.8673,-413.9"/>
<text text-anchor="start" x="157.8673" y="-497.3" font-family="Times,serif" font-size="14.00" fill="#000000">&lt;bb 10&gt;:</text>
<polyline fill="none" stroke="#000000" points="149.8673,-489.1 290.1327,-489.1 "/>
<text text-anchor="start" x="157.8673" y="-472.5" font-family="Times,serif" font-size="14.00" fill="#000000">if (i &lt;= 24)</text>
<text text-anchor="start" x="157.8673" y="-455.7" font-family="Times,serif" font-size="14.00" fill="#000000">  goto &lt;bb 6&gt;; [INV]</text>
<text text-anchor="start" x="157.8673" y="-438.9" font-family="Times,serif" font-size="14.00" fill="#000000">else</text>
<text text-anchor="start" x="157.8673" y="-422.1" font-family="Times,serif" font-size="14.00" fill="#000000">  goto &lt;bb 11&gt;; [INV]</text>
</g>
<!-- fn_0_basic_block_6 -->
<g id="node4" class="node">
<title>fn_0_basic_block_6</title>
<polygon fill="#d3d3d3" stroke="#000000" points="161.8673,-310.5 161.8673,-376.9 288.1327,-376.9 288.1327,-310.5 161.8673,-310.5"/>
<text text-anchor="start" x="169.8673" y="-360.3" font-family="Times,serif" font-size="14.00" fill="#000000">&lt;bb 6&gt;:</text>
<polyline fill="none" stroke="#000000" points="161.8673,-352.1 288.1327,-352.1 "/>
<text text-anchor="start" x="169.8673" y="-335.5" font-family="Times,serif" font-size="14.00" fill="#000000">j = 0;</text>
<text text-anchor="start" x="169.8673" y="-318.7" font-family="Times,serif" font-size="14.00" fill="#000000">goto &lt;bb 8&gt;; [INV]</text>
</g>
<!-- fn_0_basic_block_10&#45;&gt;fn_0_basic_block_6 -->
<g id="edge12" class="edge">
<title>fn_0_basic_block_10:s-&gt;fn_0_basic_block_6:n</title>
<path fill="none" stroke="#000000" stroke-width="2" d="M220,-413.9C220,-401.2582 222.8714,-395.9935 224.2622,-386.925"/>
<polygon fill="#000000" stroke="#000000" stroke-width="2" points="227.7712,-386.926 225,-376.7 220.7893,-386.4222 227.7712,-386.926"/>
</g>
<!-- fn_0_basic_block_11 -->
<g id="node12" class="node">
<title>fn_0_basic_block_11</title>
<polygon fill="#d3d3d3" stroke="#000000" points="43.3041,-318.9 43.3041,-368.5 126.6959,-368.5 126.6959,-318.9 43.3041,-318.9"/>
<text text-anchor="start" x="51.3041" y="-351.9" font-family="Times,serif" font-size="14.00" fill="#000000">&lt;bb 11&gt;:</text>
<polyline fill="none" stroke="#000000" points="43.3041,-343.7 126.6959,-343.7 "/>
<text text-anchor="start" x="51.3041" y="-327.1" font-family="Times,serif" font-size="14.00" fill="#000000">D.1514 = 0;</text>
</g>
<!-- fn_0_basic_block_10&#45;&gt;fn_0_basic_block_11 -->
<g id="edge13" class="edge">
<title>fn_0_basic_block_10:s-&gt;fn_0_basic_block_11:n</title>
<path fill="none" stroke="#000000" stroke-width="2" d="M220,-413.9C220,-354.4573 100.8528,-422.6532 86.4248,-378.6668"/>
<polygon fill="#000000" stroke="#000000" stroke-width="2" points="89.88,-378.104 85,-368.7 82.9504,-379.0947 89.88,-378.104"/>
</g>
<!-- fn_0_basic_block_6&#45;&gt;fn_0_basic_block_8 -->
<g id="edge7" class="edge">
<title>fn_0_basic_block_6:s-&gt;fn_0_basic_block_8:n</title>
<path fill="none" stroke="#0000ff" stroke-width="2" d="M225,-310.7C225,-295.9708 225,-289.9583 225,-278.9065"/>
<polygon fill="#0000ff" stroke="#0000ff" stroke-width="2" points="228.5001,-278.7 225,-268.7 221.5001,-278.7 228.5001,-278.7"/>
</g>
<!-- fn_0_basic_block_9&#45;&gt;fn_0_basic_block_10 -->
<g id="edge11" class="edge">
<title>fn_0_basic_block_9:s-&gt;fn_0_basic_block_10:n</title>
<path fill="none" stroke="#0000ff" stroke-width="2" stroke-dasharray="1,5" d="M340,-57.1C340,13.6222 634.5231,-232.1102 290.1327,-513.9 280.7094,-521.6104 243.2044,-526.7857 227.2469,-521.2494"/>
<polygon fill="#0000ff" stroke="#0000ff" stroke-width="2" points="229.5135,-518.5631 220,-513.9 224.5291,-523.478 229.5135,-518.5631"/>
</g>
<!-- fn_0_basic_block_4 -->
<g id="node6" class="node">
<title>fn_0_basic_block_4</title>
<polygon fill="#d3d3d3" stroke="#000000" points="238.3673,-659.1 238.3673,-759.1 371.6327,-759.1 371.6327,-659.1 238.3673,-659.1"/>
<text text-anchor="start" x="246.3673" y="-742.5" font-family="Times,serif" font-size="14.00" fill="#000000">&lt;bb 4&gt;:</text>
<polyline fill="none" stroke="#000000" points="238.3673,-734.3 371.6327,-734.3 "/>
<text text-anchor="start" x="246.3673" y="-717.7" font-family="Times,serif" font-size="14.00" fill="#000000">if (sum &lt;= 99)</text>
<text text-anchor="start" x="246.3673" y="-700.9" font-family="Times,serif" font-size="14.00" fill="#000000">  goto &lt;bb 3&gt;; [INV]</text>
<text text-anchor="start" x="246.3673" y="-684.1" font-family="Times,serif" font-size="14.00" fill="#000000">else</text>
<text text-anchor="start" x="246.3673" y="-667.3" font-family="Times,serif" font-size="14.00" fill="#000000">  goto &lt;bb 5&gt;; [INV]</text>
</g>
<!-- fn_0_basic_block_3 -->
<g id="node7" class="node">
<title>fn_0_basic_block_3</title>
<polygon fill="#d3d3d3" stroke="#000000" points="253.7722,-564.1 253.7722,-613.7 356.2278,-613.7 356.2278,-564.1 253.7722,-564.1"/>
<text text-anchor="start" x="261.7722" y="-597.1" font-family="Times,serif" font-size="14.00" fill="#000000">&lt;bb 3&gt;:</text>
<polyline fill="none" stroke="#000000" points="253.7722,-588.9 356.2278,-588.9 "/>
<text text-anchor="start" x="261.7722" y="-572.3" font-family="Times,serif" font-size="14.00" fill="#000000">sum = sum * 2;</text>
</g>
<!-- fn_0_basic_block_4&#45;&gt;fn_0_basic_block_3 -->
<g id="edge4" class="edge">
<title>fn_0_basic_block_4:s-&gt;fn_0_basic_block_3:n</title>
<path fill="none" stroke="#000000" stroke-width="2" d="M305,-659.1C305,-642.9347 305,-636.5254 305,-624.1711"/>
<polygon fill="#000000" stroke="#000000" stroke-width="2" points="308.5001,-623.9 305,-613.9 301.5001,-623.9 308.5001,-623.9"/>
</g>
<!-- fn_0_basic_block_5 -->
<g id="node11" class="node">
<title>fn_0_basic_block_5</title>
<polygon fill="#d3d3d3" stroke="#000000" points="88.3673,-555.7 88.3673,-622.1 221.6327,-622.1 221.6327,-555.7 88.3673,-555.7"/>
<text text-anchor="start" x="96.3673" y="-605.5" font-family="Times,serif" font-size="14.00" fill="#000000">&lt;bb 5&gt;:</text>
<polyline fill="none" stroke="#000000" points="88.3673,-597.3 221.6327,-597.3 "/>
<text text-anchor="start" x="96.3673" y="-580.7" font-family="Times,serif" font-size="14.00" fill="#000000">i = 0;</text>
<text text-anchor="start" x="96.3673" y="-563.9" font-family="Times,serif" font-size="14.00" fill="#000000">goto &lt;bb 10&gt;; [INV]</text>
</g>
<!-- fn_0_basic_block_4&#45;&gt;fn_0_basic_block_5 -->
<g id="edge5" class="edge">
<title>fn_0_basic_block_4:s-&gt;fn_0_basic_block_5:n</title>
<path fill="none" stroke="#000000" stroke-width="2" d="M305,-659.1C305,-594.3042 171.511,-679.7803 156.3892,-632.0075"/>
<polygon fill="#000000" stroke="#000000" stroke-width="2" points="159.8291,-631.3303 155,-621.9 152.8943,-632.2835 159.8291,-631.3303"/>
</g>
<!-- fn_0_basic_block_3&#45;&gt;fn_0_basic_block_4 -->
<g id="edge3" class="edge">
<title>fn_0_basic_block_3:s-&gt;fn_0_basic_block_4:n</title>
<path fill="none" stroke="#0000ff" stroke-width="2" stroke-dasharray="1,5" d="M305,-563.9C305,-541.1321 338.8841,-549.1496 356.2278,-563.9 422.5203,-620.28 433.1689,-697.5638 371.6327,-759.1 363.5346,-767.1981 328.1032,-771.6273 312.464,-766.3676"/>
<polygon fill="#0000ff" stroke="#0000ff" stroke-width="2" points="314.6064,-763.5685 305,-759.1 309.7231,-768.5838 314.6064,-763.5685"/>
</g>
<!-- fn_0_basic_block_0 -->
<g id="node8" class="node">
<title>fn_0_basic_block_0</title>
<polygon fill="#ffffff" stroke="#000000" points="305,-939.8 243.76,-921.8 305,-903.8 366.24,-921.8 305,-939.8"/>
<polyline fill="none" stroke="#000000" points="255.273,-925.184 255.273,-918.416 "/>
<polyline fill="none" stroke="#000000" points="293.487,-907.184 316.513,-907.184 "/>
<polyline fill="none" stroke="#000000" points="354.727,-918.416 354.727,-925.184 "/>
<polyline fill="none" stroke="#000000" points="316.513,-936.416 293.487,-936.416 "/>
<text text-anchor="middle" x="305" y="-917.6" font-family="Times,serif" font-size="14.00" fill="#000000">ENTRY</text>
</g>
<!-- fn_0_basic_block_1 -->
<g id="node9" class="node">
<title>fn_0_basic_block_1</title>
<polygon fill="#ffffff" stroke="#000000" points="85,-100.1 38.1002,-82.1 85,-64.1 131.8998,-82.1 85,-100.1"/>
<polyline fill="none" stroke="#000000" points="49.3034,-86.3998 49.3034,-77.8002 "/>
<polyline fill="none" stroke="#000000" points="73.7968,-68.3998 96.2032,-68.3998 "/>
<polyline fill="none" stroke="#000000" points="120.6966,-77.8002 120.6966,-86.3998 "/>
<polyline fill="none" stroke="#000000" points="96.2032,-95.8002 73.7968,-95.8002 "/>
<text text-anchor="middle" x="85" y="-77.9" font-family="Times,serif" font-size="14.00" fill="#000000">EXIT</text>
</g>
<!-- fn_0_basic_block_0&#45;&gt;fn_0_basic_block_1 -->
<!-- fn_0_basic_block_2 -->
<g id="node10" class="node">
<title>fn_0_basic_block_2</title>
<polygon fill="#d3d3d3" stroke="#000000" points="241.8673,-800.9 241.8673,-867.3 368.1327,-867.3 368.1327,-800.9 241.8673,-800.9"/>
<text text-anchor="start" x="249.8673" y="-850.7" font-family="Times,serif" font-size="14.00" fill="#000000">&lt;bb 2&gt;:</text>
<polyline fill="none" stroke="#000000" points="241.8673,-842.5 368.1327,-842.5 "/>
<text text-anchor="start" x="249.8673" y="-825.9" font-family="Times,serif" font-size="14.00" fill="#000000">sum = 0;</text>
<text text-anchor="start" x="249.8673" y="-809.1" font-family="Times,serif" font-size="14.00" fill="#000000">goto &lt;bb 4&gt;; [INV]</text>
</g>
<!-- fn_0_basic_block_0&#45;&gt;fn_0_basic_block_2 -->
<g id="edge1" class="edge">
<title>fn_0_basic_block_0:s-&gt;fn_0_basic_block_2:n</title>
<path fill="none" stroke="#0000ff" stroke-width="2" d="M305,-903.8C305,-891.4392 305,-886.1038 305,-877.146"/>
<polygon fill="#0000ff" stroke="#0000ff" stroke-width="2" points="308.5001,-877.1 305,-867.1 301.5001,-877.1 308.5001,-877.1"/>
</g>
<!-- fn_0_basic_block_2&#45;&gt;fn_0_basic_block_4 -->
<g id="edge2" class="edge">
<title>fn_0_basic_block_2:s-&gt;fn_0_basic_block_4:n</title>
<path fill="none" stroke="#0000ff" stroke-width="2" d="M305,-801.1C305,-786.3708 305,-780.3583 305,-769.3065"/>
<polygon fill="#0000ff" stroke="#0000ff" stroke-width="2" points="308.5001,-769.1 305,-759.1 301.5001,-769.1 308.5001,-769.1"/>
</g>
<!-- fn_0_basic_block_5&#45;&gt;fn_0_basic_block_10 -->
<g id="edge6" class="edge">
<title>fn_0_basic_block_5:s-&gt;fn_0_basic_block_10:n</title>
<path fill="none" stroke="#0000ff" stroke-width="2" d="M155,-555.9C155,-525.5357 205.6583,-542.8563 217.5313,-523.6682"/>
<polygon fill="#0000ff" stroke="#0000ff" stroke-width="2" points="220.943,-524.4528 220,-513.9 214.1564,-522.7376 220.943,-524.4528"/>
</g>
<!-- fn_0_basic_block_12 -->
<g id="node13" class="node">
<title>fn_0_basic_block_12</title>
<polygon fill="#d3d3d3" stroke="#000000" points="35.7882,-181.5 35.7882,-255.9 134.2118,-255.9 134.2118,-181.5 35.7882,-181.5"/>
<text text-anchor="start" x="43.7882" y="-239.3" font-family="Times,serif" font-size="14.00" fill="#000000">&lt;bb 12&gt;:</text>
<polyline fill="none" stroke="#000000" points="35.7882,-231.1 134.2118,-231.1 "/>
<text text-anchor="start" x="43.7882" y="-214.5" font-family="Times,serif" font-size="14.00" fill="#000000">&lt;L9&gt;:</text>
<polyline fill="none" stroke="#000000" points="35.7882,-206.3 134.2118,-206.3 "/>
<text text-anchor="start" x="43.7882" y="-189.7" font-family="Times,serif" font-size="14.00" fill="#000000">return D.1514;</text>
</g>
<!-- fn_0_basic_block_11&#45;&gt;fn_0_basic_block_12 -->
<g id="edge14" class="edge">
<title>fn_0_basic_block_11:s-&gt;fn_0_basic_block_12:n</title>
<path fill="none" stroke="#0000ff" stroke-width="2" d="M85,-318.7C85,-294.4188 85,-285.9298 85,-265.8434"/>
<polygon fill="#0000ff" stroke="#0000ff" stroke-width="2" points="88.5001,-265.7 85,-255.7 81.5001,-265.7 88.5001,-265.7"/>
</g>
<!-- fn_0_basic_block_12&#45;&gt;fn_0_basic_block_1 -->
<g id="edge15" class="edge">
<title>fn_0_basic_block_12:s-&gt;fn_0_basic_block_1:n</title>
<path fill="none" stroke="#000000" stroke-width="2" d="M85,-181.7C85,-149.1167 85,-138.4889 85,-110.3653"/>
<polygon fill="#000000" stroke="#000000" stroke-width="2" points="88.5001,-110.1 85,-100.1 81.5001,-110.1 88.5001,-110.1"/>
</g>
</g>
</svg>