<?xml version="1.0" encoding="UTF-8" standalone="no"?><!DOCTYPE svg PUBLIC "-//W3C//DTD SVG 1.1//EN" "http://www.w3.org/Graphics/SVG/1.1/DTD/svg11.dtd"><!-- Generated by graphviz version 2.40.1 (20161225.0304)
 --><!-- Title: G Pages: 1 --><svg xmlns="http://www.w3.org/2000/svg" xmlns:xlink="http://www.w3.org/1999/xlink" width="338pt" height="814pt" viewBox="0.00 0.00 338.00 814.40">
<g id="graph0" class="graph" transform="scale(1 1) rotate(0) translate(4 810.4)">
<title>G</title>
<polygon fill="#ffffff" stroke="transparent" points="-4,4 -4,-810.4 334,-810.4 334,4 -4,4"/>
<g id="clust1" class="cluster">
<title>cluster_main</title>
<polygon fill="none" stroke="#000000" stroke-dasharray="5,2" points="8,-8 8,-798.4 322,-798.4 322,-8 8,-8"/>
<text text-anchor="middle" x="165" y="-781.8" font-family="Times,serif" font-size="14.00" fill="#000000">main ()</text>
</g>
<g id="clust2" class="cluster">
<title>cluster_0_1</title>
<polygon fill="#e0e0e0" stroke="#006400" stroke-width="2" points="164,-228.6 164,-543.8 314,-543.8 314,-228.6 164,-228.6"/>
<text text-anchor="middle" x="189.6953" y="-527.2" font-family="Times,serif" font-size="14.00" fill="#000000">loop 1</text>
</g>
<!-- fn_0_basic_block_4 -->
<g id="node1" class="node">
<title>fn_0_basic_block_4</title>
<polygon fill="#d3d3d3" stroke="#000000" points="172.3673,-410.5 172.3673,-510.5 305.6327,-510.5 305.6327,-410.5 172.3673,-410.5"/>
<text text-anchor="start" x="180.3673" y="-493.9" font-family="Times,serif" font-size="14.00" fill="#000000">&lt;bb 4&gt;:</text>
<polyline fill="none" stroke="#000000" points="172.3673,-485.7 305.6327,-485.7 "/>
<text text-anchor="start" x="180.3673" y="-469.1" font-family="Times,serif" font-size="14.00" fill="#000000">if (i &lt;= 2)</text>
<text text-anchor="start" x="180.3673" y="-452.3" font-family="Times,serif" font-size="14.00" fill="#000000">  goto &lt;bb 3&gt;; [INV]</text>
<text text-anchor="start" x="180.3673" y="-435.5" font-family="Times,serif" font-size="14.00" fill="#000000">else</text>
<text text-anchor="start" x="180.3673" y="-418.7" font-family="Times,serif" font-size="14.00" fill="#000000">  goto &lt;bb 5&gt;; [INV]</text>
</g>
<!-- fn_0_basic_block_3 -->
<g id="node2" class="node">
<title>fn_0_basic_block_3</title>
<polygon fill="#d3d3d3" stroke="#000000" points="204.5015,-237.1 204.5015,-336.3 273.4985,-336.3 273.4985,-237.1 204.5015,-237.1"/>
<text text-anchor="start" x="212.5015" y="-319.7" font-family="Times,serif" font-size="14.00" fill="#000000">&lt;bb 3&gt;:</text>
<polyline fill="none" stroke="#000000" points="204.5015,-311.5 273.4985,-311.5 "/>
<text text-anchor="start" x="212.5015" y="-294.9" font-family="Times,serif" font-size="14.00" fill="#000000">_1 = b[i];</text>
<polyline fill="none" stroke="#000000" points="204.5015,-286.7 273.4985,-286.7 "/>
<text text-anchor="start" x="212.5015" y="-270.1" font-family="Times,serif" font-size="14.00" fill="#000000">a[i] = _1;</text>
<polyline fill="none" stroke="#000000" points="204.5015,-261.9 273.4985,-261.9 "/>
<text text-anchor="start" x="212.5015" y="-245.3" font-family="Times,serif" font-size="14.00" fill="#000000">i = i + 1;</text>
</g>
<!-- fn_0_basic_block_4&#45;&gt;fn_0_basic_block_3 -->
<g id="edge4" class="edge">
<title>fn_0_basic_block_4:s-&gt;fn_0_basic_block_3:n</title>
<path fill="none" stroke="#000000" stroke-width="2" d="M239,-410.5C239,-381.4156 239,-371.6735 239,-346.9713"/>
<polygon fill="#000000" stroke="#000000" stroke-width="2" points="242.5001,-346.7 239,-336.7 235.5001,-346.7 242.5001,-346.7"/>
</g>
<!-- fn_0_basic_block_5 -->
<g id="node6" class="node">
<title>fn_0_basic_block_5</title>
<polygon fill="#d3d3d3" stroke="#000000" points="36.1097,-199.9 36.1097,-373.5 155.8903,-373.5 155.8903,-199.9 36.1097,-199.9"/>
<text text-anchor="start" x="44.1097" y="-356.9" font-family="Times,serif" font-size="14.00" fill="#000000">&lt;bb 5&gt;:</text>
<polyline fill="none" stroke="#000000" points="36.1097,-348.7 155.8903,-348.7 "/>
<text text-anchor="start" x="44.1097" y="-332.1" font-family="Times,serif" font-size="14.00" fill="#000000">p = &amp;a;</text>
<polyline fill="none" stroke="#000000" points="36.1097,-323.9 155.8903,-323.9 "/>
<text text-anchor="start" x="44.1097" y="-307.3" font-family="Times,serif" font-size="14.00" fill="#000000">_2 = p + 8;</text>
<polyline fill="none" stroke="#000000" points="36.1097,-299.1 155.8903,-299.1 "/>
<text text-anchor="start" x="44.1097" y="-282.5" font-family="Times,serif" font-size="14.00" fill="#000000">*_2 = 5;</text>
<polyline fill="none" stroke="#000000" points="36.1097,-274.3 155.8903,-274.3 "/>
<text text-anchor="start" x="44.1097" y="-257.7" font-family="Times,serif" font-size="14.00" fill="#000000">a = {CLOBBER};</text>
<polyline fill="none" stroke="#000000" points="36.1097,-249.5 155.8903,-249.5 "/>
<text text-anchor="start" x="44.1097" y="-232.9" font-family="Times,serif" font-size="14.00" fill="#000000">b = {CLOBBER};</text>
<polyline fill="none" stroke="#000000" points="36.1097,-224.7 155.8903,-224.7 "/>
<text text-anchor="start" x="44.1097" y="-208.1" font-family="Times,serif" font-size="14.00" fill="#000000">D.1509 = 0;</text>
</g>
<!-- fn_0_basic_block_4&#45;&gt;fn_0_basic_block_5 -->
<g id="edge5" class="edge">
<title>fn_0_basic_block_4:s-&gt;fn_0_basic_block_5:n</title>
<path fill="none" stroke="#000000" stroke-width="2" d="M239,-410.5C239,-348.719 112.2669,-428.8072 97.4153,-383.6515"/>
<polygon fill="#000000" stroke="#000000" stroke-width="2" points="100.8733,-383.1075 96,-373.7 93.943,-384.0932 100.8733,-383.1075"/>
</g>
<!-- fn_0_basic_block_3&#45;&gt;fn_0_basic_block_4 -->
<g id="edge3" class="edge">
<title>fn_0_basic_block_3:s-&gt;fn_0_basic_block_4:n</title>
<path fill="none" stroke="#0000ff" stroke-width="2" stroke-dasharray="1,5" d="M239,-236.7C239,-221.3673 261.7097,-226.8962 273.4985,-236.7 298.8387,-257.7734 349.1556,-466.9771 305.6327,-510.5 297.5346,-518.5981 262.1032,-523.0273 246.464,-517.7676"/>
<polygon fill="#0000ff" stroke="#0000ff" stroke-width="2" points="248.6064,-514.9685 239,-510.5 243.7231,-519.9838 248.6064,-514.9685"/>
</g>
<!-- fn_0_basic_block_0 -->
<g id="node3" class="node">
<title>fn_0_basic_block_0</title>
<polygon fill="#ffffff" stroke="#000000" points="239,-765.6 177.76,-747.6 239,-729.6 300.24,-747.6 239,-765.6"/>
<polyline fill="none" stroke="#000000" points="189.273,-750.984 189.273,-744.216 "/>
<polyline fill="none" stroke="#000000" points="227.487,-732.984 250.513,-732.984 "/>
<polyline fill="none" stroke="#000000" points="288.727,-744.216 288.727,-750.984 "/>
<polyline fill="none" stroke="#000000" points="250.513,-762.216 227.487,-762.216 "/>
<text text-anchor="middle" x="239" y="-743.4" font-family="Times,serif" font-size="14.00" fill="#000000">ENTRY</text>
</g>
<!-- fn_0_basic_block_1 -->
<g id="node4" class="node">
<title>fn_0_basic_block_1</title>
<polygon fill="#ffffff" stroke="#000000" points="96,-52 49.1002,-34 96,-16 142.8998,-34 96,-52"/>
<polyline fill="none" stroke="#000000" points="60.3034,-38.2998 60.3034,-29.7002 "/>
<polyline fill="none" stroke="#000000" points="84.7968,-20.2998 107.2032,-20.2998 "/>
<polyline fill="none" stroke="#000000" points="131.6966,-29.7002 131.6966,-38.2998 "/>
<polyline fill="none" stroke="#000000" points="107.2032,-47.7002 84.7968,-47.7002 "/>
<text text-anchor="middle" x="96" y="-29.8" font-family="Times,serif" font-size="14.00" fill="#000000">EXIT</text>
</g>
<!-- fn_0_basic_block_0&#45;&gt;fn_0_basic_block_1 -->
<!-- fn_0_basic_block_2 -->
<g id="node5" class="node">
<title>fn_0_basic_block_2</title>
<polygon fill="#d3d3d3" stroke="#000000" points="175.8673,-552.3 175.8673,-693.1 302.1327,-693.1 302.1327,-552.3 175.8673,-552.3"/>
<text text-anchor="start" x="183.8673" y="-676.5" font-family="Times,serif" font-size="14.00" fill="#000000">&lt;bb 2&gt;:</text>
<polyline fill="none" stroke="#000000" points="175.8673,-668.3 302.1327,-668.3 "/>
<text text-anchor="start" x="183.8673" y="-651.7" font-family="Times,serif" font-size="14.00" fill="#000000">b[0] = 1;</text>
<polyline fill="none" stroke="#000000" points="175.8673,-643.5 302.1327,-643.5 "/>
<text text-anchor="start" x="183.8673" y="-626.9" font-family="Times,serif" font-size="14.00" fill="#000000">b[1] = 2;</text>
<polyline fill="none" stroke="#000000" points="175.8673,-618.7 302.1327,-618.7 "/>
<text text-anchor="start" x="183.8673" y="-602.1" font-family="Times,serif" font-size="14.00" fill="#000000">b[2] = 3;</text>
<polyline fill="none" stroke="#000000" points="175.8673,-593.9 302.1327,-593.9 "/>
<text text-anchor="start" x="183.8673" y="-577.3" font-family="Times,serif" font-size="14.00" fill="#000000">i = 0;</text>
<text text-anchor="start" x="183.8673" y="-560.5" font-family="Times,serif" font-size="14.00" fill="#000000">goto &lt;bb 4&gt;; [INV]</text>
</g>
<!-- fn_0_basic_block_0&#45;&gt;fn_0_basic_block_2 -->
<g id="edge1" class="edge">
<title>fn_0_basic_block_0:s-&gt;fn_0_basic_block_2:n</title>
<path fill="none" stroke="#0000ff" stroke-width="2" d="M239,-729.6C239,-717.1719 239,-711.8074 239,-702.8007"/>
<polygon fill="#0000ff" stroke="#0000ff" stroke-width="2" points="242.5001,-702.7 239,-692.7 235.5001,-702.7 242.5001,-702.7"/>
</g>
<!-- fn_0_basic_block_2&#45;&gt;fn_0_basic_block_4 -->
<g id="edge2" class="edge">
<title>fn_0_basic_block_2:s-&gt;fn_0_basic_block_4:n</title>
<path fill="none" stroke="#0000ff" stroke-width="2" d="M239,-552.7C239,-537.9007 239,-531.8596 239,-520.7551"/>
<polygon fill="#0000ff" stroke="#0000ff" stroke-width="2" points="242.5001,-520.5 239,-510.5 235.5001,-520.5 242.5001,-520.5"/>
</g>
<!-- fn_0_basic_block_6 -->
<g id="node7" class="node">
<title>fn_0_basic_block_6</title>
<polygon fill="#d3d3d3" stroke="#000000" points="46.7882,-88.5 46.7882,-162.9 145.2118,-162.9 145.2118,-88.5 46.7882,-88.5"/>
<text text-anchor="start" x="54.7882" y="-146.3" font-family="Times,serif" font-size="14.00" fill="#000000">&lt;bb 6&gt;:</text>
<polyline fill="none" stroke="#000000" points="46.7882,-138.1 145.2118,-138.1 "/>
<text text-anchor="start" x="54.7882" y="-121.5" font-family="Times,serif" font-size="14.00" fill="#000000">&lt;L3&gt;:</text>
<polyline fill="none" stroke="#000000" points="46.7882,-113.3 145.2118,-113.3 "/>
<text text-anchor="start" x="54.7882" y="-96.7" font-family="Times,serif" font-size="14.00" fill="#000000">return D.1509;</text>
</g>
<!-- fn_0_basic_block_5&#45;&gt;fn_0_basic_block_6 -->
<g id="edge6" class="edge">
<title>fn_0_basic_block_5:s-&gt;fn_0_basic_block_6:n</title>
<path fill="none" stroke="#0000ff" stroke-width="2" d="M96,-199.7C96,-187.2382 96,-181.8592 96,-172.8281"/>
<polygon fill="#0000ff" stroke="#0000ff" stroke-width="2" points="99.5001,-172.7 96,-162.7 92.5001,-172.7 99.5001,-172.7"/>
</g>
<!-- fn_0_basic_block_6&#45;&gt;fn_0_basic_block_1 -->
<g id="edge7" class="edge">
<title>fn_0_basic_block_6:s-&gt;fn_0_basic_block_1:n</title>
<path fill="none" stroke="#000000" stroke-width="2" d="M96,-88.7C96,-76.3392 96,-71.0038 96,-62.046"/>
<polygon fill="#000000" stroke="#000000" stroke-width="2" points="99.5001,-62 96,-52 92.5001,-62 99.5001,-62"/>
</g>
</g>
</svg>